DiplomataSC-Regular.otf.ufo
<glyph name="dollar" format="1">
  <advance width="1261"/>
  <unicode hex="0024"/>
  <outline>
    <contour>
      <point x="584" y="-110" type="line" name="hr00"/>
      <point x="634" y="-110" type="line"/>
      <point x="634" y="201" type="line"/>
      <point x="584" y="201" type="line"/>
    </contour>
    <contour>
      <point x="584" y="449" type="line"/>
      <point x="634" y="449" type="line"/>
      <point x="634" y="760" type="line"/>
      <point x="584" y="760" type="line"/>
    </contour>
    <component  base="S"/>
  </outline>
</glyph>
<glyph name="two" format="1">
  <advance width="1009"/>
  <unicode hex="0032"/>
  <outline>
    <contour>
      <point x="913" y="148" type="line" name="hr00"/>
      <point x="702" y="85"/>
      <point x="465" y="43"/>
      <point x="94" y="42" type="curve"/>
      <point x="94" y="47" type="line"/>
      <point x="394" y="116" smooth="yes"/>
      <point x="952" y="279" smooth="yes"/>
      <point x="952" y="474" type="curve" smooth="yes"/>
      <point x="952" y="632" smooth="yes"/>
      <point x="649" y="670" smooth="yes"/>
      <point x="491" y="670" type="curve" smooth="yes"/>
      <point x="302" y="670"/>
      <point x="193" y="622"/>
      <point x="120" y="580" type="curve"/>
      <point x="120" y="634" type="line"/>
      <point x="85" y="634" type="line"/>
      <point x="85" y="362" type="line"/>
      <point x="120" y="362" type="line"/>
      <point x="144" y="490" smooth="yes"/>
      <point x="295" y="630" smooth="yes"/>
      <point x="450" y="630" type="curve" smooth="yes"/>
      <point x="481" y="630" smooth="yes"/>
      <point x="593" y="617" smooth="yes"/>
      <point x="593" y="467" type="curve" smooth="yes"/>
      <point x="593" y="264"/>
      <point x="220" y="117"/>
      <point x="50" y="66" type="curve"/>
      <point x="50" y="0" type="line"/>
      <point x="948" y="0" type="line"/>
      <point x="948" y="230" type="line"/>
      <point x="913" y="230" type="line"/>
    </contour>
    <contour>
      <point x="598" y="610" type="line"/>
      <point x="598" y="610" smooth="yes"/>
      <point x="695" y="553" smooth="yes"/>
      <point x="695" y="464" type="curve" smooth="yes"/>
      <point x="695" y="296"/>
      <point x="524" y="249"/>
      <point x="524" y="249" type="curve"/>
      <point x="522" y="254" type="line"/>
      <point x="569" y="291" smooth="yes"/>
      <point x="648" y="371" smooth="yes"/>
      <point x="648" y="467" type="curve" smooth="yes"/>
      <point x="648" y="564"/>
      <point x="595" y="607"/>
      <point x="595" y="607" type="curve"/>
    </contour>
  </outline>
</glyph>
<glyph name="eight" format="1">
  <advance width="1098"/>
  <unicode hex="0038"/>
  <outline>
    <contour>
      <point x="722" y="385" type="line"/>
      <point x="742" y="422" smooth="yes"/>
      <point x="755" y="463" smooth="yes"/>
      <point x="755" y="507" type="curve" smooth="yes"/>
      <point x="755" y="549"/>
      <point x="742" y="592"/>
      <point x="723" y="629" type="curve"/>
      <point x="727" y="633" type="line"/>
      <point x="774" y="601" smooth="yes"/>
      <point x="804" y="557" smooth="yes"/>
      <point x="804" y="507" type="curve" smooth="yes"/>
      <point x="804" y="458"/>
      <point x="774" y="414"/>
      <point x="726" y="382" type="curve"/>
    </contour>
    <contour>
      <point x="353" y="380" type="line"/>
      <point x="251" y="409" smooth="yes"/>
      <point x="184" y="455" smooth="yes"/>
      <point x="184" y="507" type="curve" smooth="yes"/>
      <point x="184" y="561"/>
      <point x="253" y="610"/>
      <point x="358" y="637" type="curve"/>
      <point x="359" y="633" type="line"/>
      <point x="282" y="604" smooth="yes"/>
      <point x="232" y="558" smooth="yes"/>
      <point x="232" y="507" type="curve" smooth="yes"/>
      <point x="232" y="456"/>
      <point x="280" y="413"/>
      <point x="355" y="384" type="curve"/>
    </contour>
    <contour>
      <point x="393" y="505" type="curve" smooth="yes"/>
      <point x="393" y="597" smooth="yes"/>
      <point x="426" y="645" smooth="yes"/>
      <point x="549" y="645" type="curve" smooth="yes"/>
      <point x="672" y="645" smooth="yes"/>
      <point x="706" y="597" smooth="yes"/>
      <point x="706" y="505" type="curve" smooth="yes"/>
      <point x="706" y="411" smooth="yes"/>
      <point x="647" y="369" smooth="yes"/>
      <point x="549" y="369" type="curve" smooth="yes"/>
      <point x="451" y="369" smooth="yes"/>
      <point x="393" y="411" smooth="yes"/>
    </contour>
    <contour>
      <point x="321" y="20" type="line"/>
      <point x="195" y="52" smooth="yes"/>
      <point x="112" y="109" smooth="yes"/>
      <point x="112" y="174" type="curve" smooth="yes"/>
      <point x="112" y="239"/>
      <point x="194" y="295"/>
      <point x="319" y="328" type="curve"/>
      <point x="321" y="324" type="line"/>
      <point x="228" y="291" smooth="yes"/>
      <point x="168" y="236" smooth="yes"/>
      <point x="168" y="174" type="curve" smooth="yes" name="hr01"/>
      <point x="168" y="112"/>
      <point x="230" y="57"/>
      <point x="323" y="24" type="curve"/>
    </contour>
    <contour>
      <point x="549" y="12" type="curve" smooth="yes"/>
      <point x="450" y="12" smooth="yes"/>
      <point x="392" y="67" smooth="yes"/>
      <point x="392" y="174" type="curve" smooth="yes"/>
      <point x="392" y="290" smooth="yes"/>
      <point x="440" y="345" smooth="yes"/>
      <point x="549" y="345" type="curve" smooth="yes"/>
      <point x="668" y="345" smooth="yes"/>
      <point x="706" y="278" smooth="yes"/>
      <point x="706" y="174" type="curve" smooth="yes"/>
      <point x="706" y="67" smooth="yes"/>
      <point x="648" y="12" smooth="yes"/>
    </contour>
    <contour>
      <point x="728" y="28" type="line"/>
      <point x="753" y="72" smooth="yes"/>
      <point x="768" y="122" smooth="yes"/>
      <point x="768" y="174" type="curve" smooth="yes"/>
      <point x="768" y="226"/>
      <point x="753" y="276"/>
      <point x="729" y="320" type="curve"/>
      <point x="731" y="324" type="line"/>
      <point x="789" y="287" smooth="yes"/>
      <point x="823" y="234" smooth="yes"/>
      <point x="823" y="174" type="curve" smooth="yes"/>
      <point x="823" y="115"/>
      <point x="789" y="61"/>
      <point x="732" y="25" type="curve"/>
    </contour>
    <contour>
      <point x="972" y="507" type="curve" smooth="yes" name="hr02"/>
      <point x="972" y="597" smooth="yes"/>
      <point x="808" y="670" smooth="yes"/>
      <point x="549" y="670" type="curve" smooth="yes"/>
      <point x="291" y="670" smooth="yes"/>
      <point x="127" y="597" smooth="yes"/>
      <point x="127" y="507" type="curve" smooth="yes"/>
      <point x="127" y="442"/>
      <point x="223" y="386"/>
      <point x="364" y="360" type="curve"/>
      <point x="364" y="356" type="line"/>
      <point x="171" y="328" smooth="yes"/>
      <point x="57" y="257" smooth="yes"/>
      <point x="57" y="174" type="curve" smooth="yes"/>
      <point x="57" y="66" smooth="yes"/>
      <point x="277" y="-22" smooth="yes"/>
      <point x="549" y="-22" type="curve" smooth="yes"/>
      <point x="821" y="-22" smooth="yes"/>
      <point x="1041" y="66" smooth="yes"/>
      <point x="1041" y="174" type="curve" smooth="yes" name="hr03"/>
      <point x="1041" y="257"/>
      <point x="927" y="328"/>
      <point x="735" y="356" type="curve"/>
      <point x="735" y="360" type="line"/>
      <point x="875" y="386" smooth="yes"/>
      <point x="972" y="442" smooth="yes"/>
    </contour>
  </outline>
</glyph>
<glyph name="equal" format="1">
  <advance width="740"/>
  <unicode hex="003D"/>
  <outline>
    <contour>
      <point x="640" y="268" type="line" name="hr00"/>
      <point x="100" y="268" type="line"/>
      <point x="100" y="188" type="line"/>
      <point x="640" y="188" type="line"/>
    </contour>
    <contour>
      <point x="640" y="488" type="line"/>
      <point x="100" y="488" type="line"/>
      <point x="100" y="408" type="line"/>
      <point x="640" y="408" type="line"/>
    </contour>
  </outline>
</glyph>
<glyph name="greater" format="1">
  <advance width="740"/>
  <unicode hex="003E"/>
  <outline>
    <contour>
      <point x="107" y="520" type="line" name="hr00"/>
      <point x="509" y="339" type="line"/>
      <point x="107" y="158" type="line"/>
      <point x="141" y="87" type="line"/>
      <point x="619" y="309" type="line"/>
      <point x="619" y="369" type="line"/>
      <point x="141" y="591" type="line"/>
    </contour>
  </outline>
</glyph>
<glyph name="A" format="1">
  <advance width="1397"/>
  <unicode hex="0041"/>
  <outline>
    <contour>
      <point x="1296" y="43" type="line" name="hr00"/>
      <point x="806" y="650" type="line"/>
      <point x="234" y="650" type="line"/>
      <point x="234" y="607" type="line"/>
      <point x="313" y="607" type="line" smooth="yes"/>
      <point x="378" y="607" smooth="yes"/>
      <point x="406" y="589" smooth="yes"/>
      <point x="436" y="553" type="curve" smooth="yes"/>
      <point x="461" y="522" type="line"/>
      <point x="204" y="195" type="line" smooth="yes"/>
      <point x="204" y="194"/>
      <point x="97" y="43"/>
      <point x="-14" y="43" type="curve"/>
      <point x="-14" y="0" type="line"/>
      <point x="422" y="0" type="line"/>
      <point x="422" y="43" type="line"/>
      <point x="329" y="43" type="line" smooth="yes"/>
      <point x="286" y="43" smooth="yes"/>
      <point x="254" y="68" smooth="yes"/>
      <point x="254" y="112" type="curve" smooth="yes"/>
      <point x="254" y="135"/>
      <point x="263" y="163"/>
      <point x="283" y="194" type="curve"/>
      <point x="726" y="194" type="line"/>
      <point x="763" y="148" type="line" smooth="yes"/>
      <point x="783" y="123" smooth="yes"/>
      <point x="792" y="103" smooth="yes"/>
      <point x="792" y="86" type="curve" smooth="yes"/>
      <point x="792" y="58" smooth="yes"/>
      <point x="766" y="43" smooth="yes"/>
      <point x="733" y="43" type="curve" smooth="yes"/>
      <point x="659" y="43" type="line"/>
      <point x="659" y="0" type="line"/>
      <point x="1410" y="0" type="line"/>
      <point x="1410" y="43" type="line"/>
    </contour>
    <contour>
      <point x="321" y="242" type="line"/>
      <point x="500" y="474" type="line"/>
      <point x="688" y="242" type="line"/>
    </contour>
    <contour>
      <point x="928" y="43" type="line"/>
      <point x="473" y="607" type="line"/>
      <point x="550" y="607" type="line"/>
      <point x="1005" y="43" type="line"/>
    </contour>
  </outline>
</glyph>
<glyph name="C" format="1">
  <advance width="1097"/>
  <unicode hex="0043"/>
  <outline>
    <contour>
      <point x="980" y="42" type="curve" smooth="yes"/>
      <point x="1047" y="76" smooth="yes"/>
      <point x="1084" y="103" smooth="yes"/>
      <point x="1084" y="123" type="curve" smooth="yes"/>
      <point x="1084" y="139" smooth="yes"/>
      <point x="1069" y="143" smooth="yes"/>
      <point x="1060" y="143" type="curve" smooth="yes"/>
      <point x="1025" y="143" smooth="yes"/>
      <point x="922" y="20" smooth="yes"/>
      <point x="669" y="20" type="curve" smooth="yes" name="hr01"/>
      <point x="523" y="20" smooth="yes"/>
      <point x="474" y="78" smooth="yes"/>
      <point x="474" y="211" type="curve" smooth="yes"/>
      <point x="474" y="211" smooth="yes"/>
      <point x="474" y="430" smooth="yes"/>
      <point x="474" y="485" type="curve" smooth="yes"/>
      <point x="474" y="568" smooth="yes"/>
      <point x="508" y="630" smooth="yes"/>
      <point x="625" y="630" type="curve" smooth="yes"/>
      <point x="782" y="630"/>
      <point x="937" y="509"/>
      <point x="989" y="411" type="curve"/>
      <point x="1037" y="411" type="line"/>
      <point x="1037" y="650" type="line"/>
      <point x="989" y="650" type="line"/>
      <point x="989" y="600" type="line"/>
      <point x="887" y="637" smooth="yes"/>
      <point x="764" y="674" smooth="yes"/>
      <point x="630" y="674" type="curve" smooth="yes" name="hr02"/>
      <point x="351" y="674" smooth="yes"/>
      <point x="22" y="580" smooth="yes"/>
      <point x="22" y="328" type="curve" smooth="yes"/>
      <point x="22" y="80" smooth="yes"/>
      <point x="322" y="-22" smooth="yes"/>
      <point x="666" y="-22" type="curve" smooth="yes"/>
      <point x="817" y="-22" smooth="yes"/>
      <point x="913" y="9" smooth="yes"/>
    </contour>
    <contour>
      <point x="152" y="320" type="curve"/>
      <point x="152" y="195"/>
      <point x="247" y="111"/>
      <point x="357" y="64" type="curve"/>
      <point x="356" y="59" type="line"/>
      <point x="195" y="101" smooth="yes"/>
      <point x="81" y="202" smooth="yes"/>
      <point x="81" y="320" type="curve" smooth="yes"/>
      <point x="81" y="449"/>
      <point x="195" y="560"/>
      <point x="356" y="605" type="curve"/>
      <point x="357" y="600" type="line"/>
      <point x="247" y="549" smooth="yes"/>
      <point x="152" y="457" smooth="yes"/>
    </contour>
  </outline>
</glyph>
<glyph name="E" format="1">
  <advance width="1360"/>
  <unicode hex="0045"/>
  <outline>
    <contour>
      <point x="804" y="605" type="curve" smooth="yes" name="hr00"/>
      <point x="1051" y="605"/>
      <point x="1186" y="507"/>
      <point x="1251" y="420" type="curve"/>
      <point x="1280" y="420" type="line"/>
      <point x="1280" y="650" type="line"/>
      <point x="73" y="650" type="line"/>
      <point x="73" y="607" type="line"/>
      <point x="193" y="607" type="line" smooth="yes"/>
      <point x="254" y="607" smooth="yes"/>
      <point x="302" y="556" smooth="yes"/>
      <point x="302" y="497" type="curve" smooth="yes"/>
      <point x="302" y="151" type="line" smooth="yes"/>
      <point x="302" y="71" smooth="yes"/>
      <point x="254" y="43" smooth="yes"/>
      <point x="193" y="43" type="curve" smooth="yes"/>
      <point x="73" y="43" type="line"/>
      <point x="73" y="0" type="line"/>
      <point x="1280" y="0" type="line"/>
      <point x="1280" y="212" type="line"/>
      <point x="1251" y="212" type="line"/>
      <point x="1129" y="48" smooth="yes"/>
      <point x="947" y="43" smooth="yes"/>
      <point x="802" y="43" type="curve" smooth="yes"/>
      <point x="777" y="43" type="line" smooth="yes"/>
      <point x="697" y="43" smooth="yes"/>
      <point x="691" y="99" smooth="yes"/>
      <point x="691" y="187" type="curve" smooth="yes"/>
      <point x="691" y="223" type="line" smooth="yes"/>
      <point x="691" y="265" smooth="yes"/>
      <point x="711" y="312" smooth="yes"/>
      <point x="779" y="312" type="curve" smooth="yes"/>
      <point x="866" y="312"/>
      <point x="989" y="270"/>
      <point x="1022" y="194" type="curve"/>
      <point x="1059" y="194" type="line"/>
      <point x="1059" y="499" type="line"/>
      <point x="1022" y="499" type="line"/>
      <point x="989" y="428" smooth="yes"/>
      <point x="866" y="372" smooth="yes"/>
      <point x="779" y="372" type="curve" smooth="yes"/>
      <point x="701" y="372" smooth="yes"/>
      <point x="691" y="433" smooth="yes"/>
      <point x="691" y="474" type="curve" smooth="yes"/>
      <point x="691" y="508" type="line" smooth="yes"/>
      <point x="691" y="565" smooth="yes"/>
      <point x="734" y="605" smooth="yes"/>
    </contour>
    <contour>
      <point x="435" y="43" type="line"/>
      <point x="369" y="43" type="line"/>
      <point x="369" y="607" type="line"/>
      <point x="435" y="607" type="line"/>
    </contour>
  </outline>
</glyph>
<glyph name="I" format="1">
  <advance width="1003"/>
  <unicode hex="0049"/>
  <outline>
    <contour>
      <point x="694" y="497" type="line" smooth="yes" name="hr00"/>
      <point x="694" y="556" smooth="yes"/>
      <point x="743" y="607" smooth="yes"/>
      <point x="803" y="607" type="curve" smooth="yes"/>
      <point x="924" y="607" type="line"/>
      <point x="924" y="650" type="line"/>
      <point x="73" y="650" type="line"/>
      <point x="73" y="607" type="line"/>
      <point x="195" y="607" type="line" smooth="yes"/>
      <point x="255" y="607" smooth="yes"/>
      <point x="304" y="556" smooth="yes"/>
      <point x="304" y="497" type="curve" smooth="yes"/>
      <point x="304" y="151" type="line" smooth="yes"/>
      <point x="304" y="71" smooth="yes"/>
      <point x="255" y="43" smooth="yes"/>
      <point x="195" y="43" type="curve" smooth="yes"/>
      <point x="73" y="43" type="line"/>
      <point x="73" y="0" type="line"/>
      <point x="924" y="0" type="line"/>
      <point x="924" y="43" type="line"/>
      <point x="803" y="43" type="line" smooth="yes"/>
      <point x="743" y="43" smooth="yes"/>
      <point x="694" y="71" smooth="yes"/>
      <point x="694" y="151" type="curve" smooth="yes"/>
    </contour>
    <contour>
      <point x="436" y="43" type="line"/>
      <point x="371" y="43" type="line"/>
      <point x="371" y="607" type="line"/>
      <point x="436" y="607" type="line"/>
    </contour>
  </outline>
</glyph>
<glyph name="J" format="1">
  <advance width="1088"/>
  <unicode hex="004A"/>
  <outline>
    <contour>
      <point x="608" y="208" type="line"/>
      <point x="608" y="109"/>
      <point x="571" y="75"/>
      <point x="544" y="64" type="curve"/>
      <point x="544" y="607" type="line"/>
      <point x="608" y="607" type="line"/>
    </contour>
    <contour>
      <point x="247" y="650" type="line"/>
      <point x="247" y="607" type="line"/>
      <point x="368" y="607" type="line" smooth="yes"/>
      <point x="437" y="607" smooth="yes"/>
      <point x="477" y="556" smooth="yes"/>
      <point x="477" y="497" type="curve" smooth="yes"/>
      <point x="477" y="129" type="line" smooth="yes"/>
      <point x="477" y="49" smooth="yes"/>
      <point x="427" y="21" smooth="yes"/>
      <point x="368" y="21" type="curve" smooth="yes"/>
      <point x="141" y="21"/>
      <point x="35" y="262"/>
      <point x="35" y="262" type="curve"/>
      <point x="-14" y="262" type="line"/>
      <point x="-14" y="0" type="line"/>
      <point x="35" y="0" type="line"/>
      <point x="35" y="51" type="line"/>
      <point x="81" y="33" smooth="yes"/>
      <point x="234" y="-22" smooth="yes"/>
      <point x="434" y="-22" type="curve" smooth="yes" name="hr01"/>
      <point x="773" y="-22" smooth="yes"/>
      <point x="867" y="60" smooth="yes"/>
      <point x="867" y="196" type="curve" smooth="yes"/>
      <point x="867" y="497" type="line" smooth="yes"/>
      <point x="867" y="556" smooth="yes"/>
      <point x="906" y="607" smooth="yes"/>
      <point x="976" y="607" type="curve" smooth="yes"/>
      <point x="1075" y="607" type="line"/>
      <point x="1075" y="650" type="line"/>
    </contour>
  </outline>
</glyph>
<glyph name="M" format="1">
  <advance width="1858"/>
  <unicode hex="004D"/>
  <outline>
    <contour>
      <point x="1226" y="607" type="line" name="hr00"/>
      <point x="1291" y="607" type="line"/>
      <point x="1291" y="43" type="line"/>
      <point x="1226" y="43" type="line"/>
    </contour>
    <contour>
      <point x="1825" y="607" type="line"/>
      <point x="1825" y="650" type="line"/>
      <point x="1144" y="650" type="line"/>
      <point x="976" y="389" type="line"/>
      <point x="669" y="650" type="line"/>
      <point x="22" y="650" type="line"/>
      <point x="22" y="607" type="line"/>
      <point x="187" y="607" smooth="yes"/>
      <point x="350" y="519" smooth="yes"/>
      <point x="350" y="382" type="curve" smooth="yes"/>
      <point x="350" y="277" type="line" smooth="yes"/>
      <point x="350" y="105"/>
      <point x="168" y="43"/>
      <point x="35" y="43" type="curve"/>
      <point x="35" y="0" type="line"/>
      <point x="730" y="0" type="line"/>
      <point x="730" y="43" type="line"/>
      <point x="597" y="43" smooth="yes"/>
      <point x="415" y="105" smooth="yes"/>
      <point x="415" y="277" type="curve" smooth="yes"/>
      <point x="415" y="411" type="line"/>
      <point x="801" y="85" type="line"/>
      <point x="853" y="85" type="line"/>
      <point x="1159" y="559" type="line"/>
      <point x="1159" y="151" type="line" smooth="yes"/>
      <point x="1159" y="71" smooth="yes"/>
      <point x="1110" y="43" smooth="yes"/>
      <point x="1050" y="43" type="curve" smooth="yes"/>
      <point x="930" y="43" type="line"/>
      <point x="930" y="0" type="line"/>
      <point x="1825" y="0" type="line"/>
      <point x="1825" y="43" type="line"/>
      <point x="1658" y="43" type="line" smooth="yes"/>
      <point x="1598" y="43" smooth="yes"/>
      <point x="1549" y="71" smooth="yes"/>
      <point x="1549" y="151" type="curve" smooth="yes"/>
      <point x="1549" y="526" type="line" smooth="yes"/>
      <point x="1549" y="585" smooth="yes"/>
      <point x="1598" y="607" smooth="yes"/>
      <point x="1658" y="607" type="curve" smooth="yes"/>
    </contour>
    <contour>
      <point x="836" y="169" type="line"/>
      <point x="811" y="169" type="line"/>
      <point x="296" y="605" type="line"/>
      <point x="396" y="605" type="line"/>
      <point x="836" y="232" type="line"/>
    </contour>
  </outline>
</glyph>
<glyph name="N" format="1">
  <advance width="1544"/>
  <unicode hex="004E"/>
  <outline>
    <contour>
      <point x="1009" y="650" type="line" name="hr00"/>
      <point x="1009" y="607" type="line"/>
      <point x="1108" y="607" smooth="yes"/>
      <point x="1237" y="583" smooth="yes"/>
      <point x="1237" y="410" type="curve" smooth="yes"/>
      <point x="1237" y="387" smooth="yes"/>
      <point x="1222" y="383" smooth="yes"/>
      <point x="1214" y="383" type="curve" smooth="yes"/>
      <point x="1196" y="383" smooth="yes"/>
      <point x="1120" y="431" smooth="yes"/>
      <point x="1120" y="431" type="curve" smooth="yes"/>
      <point x="772" y="650" type="line"/>
      <point x="23" y="650" type="line"/>
      <point x="23" y="607" type="line"/>
      <point x="187" y="607" smooth="yes"/>
      <point x="350" y="519" smooth="yes"/>
      <point x="350" y="382" type="curve" smooth="yes"/>
      <point x="350" y="277" type="line" smooth="yes"/>
      <point x="350" y="104"/>
      <point x="168" y="43"/>
      <point x="35" y="43" type="curve"/>
      <point x="35" y="0" type="line"/>
      <point x="730" y="0" type="line"/>
      <point x="730" y="43" type="line"/>
      <point x="597" y="43" smooth="yes"/>
      <point x="415" y="104" smooth="yes"/>
      <point x="415" y="277" type="curve" smooth="yes"/>
      <point x="415" y="323" type="line" smooth="yes"/>
      <point x="415" y="379" smooth="yes"/>
      <point x="440" y="393" smooth="yes"/>
      <point x="465" y="393" type="curve" smooth="yes"/>
      <point x="490" y="393" smooth="yes"/>
      <point x="515" y="379" smooth="yes"/>
      <point x="515" y="379" type="curve" smooth="yes"/>
      <point x="1211" y="-42" type="line"/>
      <point x="1301" y="-42" type="line"/>
      <point x="1301" y="410" type="line" smooth="yes"/>
      <point x="1301" y="583"/>
      <point x="1430" y="607"/>
      <point x="1529" y="607" type="curve"/>
      <point x="1529" y="650" type="line"/>
    </contour>
    <contour>
      <point x="1211" y="35" type="line"/>
      <point x="356" y="552" type="line"/>
      <point x="356" y="607" type="line"/>
      <point x="383" y="607" type="line"/>
      <point x="1211" y="107" type="line"/>
    </contour>
  </outline>
</glyph>
<glyph name="U" format="1">
  <advance width="1217"/>
  <unicode hex="0055"/>
  <outline>
    <contour>
      <point x="757" y="650" type="line" name="hr00"/>
      <point x="757" y="607" type="line"/>
      <point x="818" y="607" smooth="yes"/>
      <point x="947" y="584" smooth="yes"/>
      <point x="947" y="411" type="curve" smooth="yes"/>
      <point x="947" y="174" type="line" smooth="yes"/>
      <point x="947" y="97" smooth="yes"/>
      <point x="904" y="31" smooth="yes"/>
      <point x="692" y="31" type="curve" smooth="yes"/>
      <point x="608" y="31" smooth="yes"/>
      <point x="577" y="73" smooth="yes"/>
      <point x="577" y="167" type="curve" smooth="yes"/>
      <point x="577" y="499" type="line" smooth="yes"/>
      <point x="577" y="579" smooth="yes"/>
      <point x="625" y="607" smooth="yes"/>
      <point x="685" y="607" type="curve" smooth="yes"/>
      <point x="701" y="607" type="line"/>
      <point x="701" y="650" type="line"/>
      <point x="40" y="650" type="line"/>
      <point x="40" y="607" type="line"/>
      <point x="78" y="607" type="line" smooth="yes"/>
      <point x="138" y="607" smooth="yes"/>
      <point x="186" y="579" smooth="yes"/>
      <point x="186" y="499" type="curve" smooth="yes"/>
      <point x="186" y="177" type="line" smooth="yes"/>
      <point x="186" y="96" smooth="yes"/>
      <point x="220" y="-22" smooth="yes"/>
      <point x="652" y="-22" type="curve" smooth="yes"/>
      <point x="1000" y="-22" smooth="yes"/>
      <point x="1012" y="96" smooth="yes"/>
      <point x="1012" y="220" type="curve" smooth="yes"/>
      <point x="1012" y="411" type="line" smooth="yes"/>
      <point x="1012" y="584"/>
      <point x="1113" y="607"/>
      <point x="1212" y="607" type="curve"/>
      <point x="1212" y="650" type="line"/>
    </contour>
    <contour>
      <point x="254" y="607" type="curve"/>
      <point x="319" y="607" type="line"/>
      <point x="319" y="88" type="line"/>
      <point x="315" y="88" smooth="yes"/>
      <point x="254" y="88" smooth="yes"/>
      <point x="254" y="210" type="curve" smooth="yes"/>
      <point x="254" y="334"/>
      <point x="254" y="607"/>
    </contour>
  </outline>
</glyph>
<glyph name="W" format="1">
  <advance width="2028"/>
  <unicode hex="0057"/>
  <outline>
    <contour>
      <point x="1459" y="607" type="line" name="hr00"/>
      <point x="1459" y="650" type="line"/>
      <point x="755" y="650" type="line"/>
      <point x="755" y="607" type="line"/>
      <point x="822" y="607" type="line"/>
      <point x="978" y="433" type="line"/>
      <point x="821" y="260" type="line"/>
      <point x="634" y="450" type="line" smooth="yes"/>
      <point x="611" y="473" smooth="yes"/>
      <point x="599" y="505" smooth="yes"/>
      <point x="599" y="533" type="curve" smooth="yes"/>
      <point x="599" y="573" smooth="yes"/>
      <point x="621" y="607" smooth="yes"/>
      <point x="662" y="607" type="curve" smooth="yes"/>
      <point x="690" y="607" type="line"/>
      <point x="690" y="650" type="line"/>
      <point x="-14" y="650" type="line"/>
      <point x="-14" y="607" type="line"/>
      <point x="53" y="607" type="line"/>
      <point x="618" y="-23" type="line"/>
      <point x="654" y="-23" type="line"/>
      <point x="1021" y="383" type="line"/>
      <point x="1387" y="-23" type="line"/>
      <point x="1423" y="-23" type="line"/>
      <point x="1992" y="607" type="line"/>
      <point x="2041" y="607" type="line"/>
      <point x="2041" y="650" type="line"/>
      <point x="1524" y="650" type="line"/>
      <point x="1524" y="607" type="line"/>
      <point x="1524" y="607" smooth="yes"/>
      <point x="1549" y="607" smooth="yes"/>
      <point x="1573" y="607" type="curve" smooth="yes"/>
      <point x="1679" y="607" smooth="yes"/>
      <point x="1750" y="542" smooth="yes"/>
      <point x="1750" y="474" type="curve" smooth="yes"/>
      <point x="1750" y="449" smooth="yes"/>
      <point x="1741" y="424" smooth="yes"/>
      <point x="1720" y="402" type="curve" smooth="yes"/>
      <point x="1589" y="260" type="line"/>
      <point x="1404" y="450" type="line" smooth="yes"/>
      <point x="1381" y="473" smooth="yes"/>
      <point x="1369" y="505" smooth="yes"/>
      <point x="1369" y="533" type="curve" smooth="yes"/>
      <point x="1369" y="573" smooth="yes"/>
      <point x="1391" y="607" smooth="yes"/>
      <point x="1432" y="607" type="curve" smooth="yes"/>
    </contour>
    <contour>
      <point x="221" y="607" type="line"/>
      <point x="691" y="83" type="line"/>
      <point x="651" y="38" type="line"/>
      <point x="141" y="607" type="line"/>
    </contour>
    <contour>
      <point x="990" y="607" type="line"/>
      <point x="1460" y="83" type="line"/>
      <point x="1420" y="38" type="line"/>
      <point x="910" y="607" type="line"/>
    </contour>
  </outline>
</glyph>
<glyph name="Z" format="1">
  <advance width="1173"/>
  <unicode hex="005A"/>
  <outline>
    <contour>
      <point x="1098" y="607" type="line" name="hr00"/>
      <point x="548" y="43" type="line"/>
      <point x="666" y="43" type="line" smooth="yes"/>
      <point x="913" y="43"/>
      <point x="1015" y="154"/>
      <point x="1075" y="226" type="curve"/>
      <point x="1104" y="226" type="line"/>
      <point x="1104" y="0" type="line"/>
      <point x="54" y="0" type="line"/>
      <point x="54" y="43" type="line"/>
      <point x="77" y="43" type="line"/>
      <point x="626" y="607" type="line"/>
      <point x="569" y="607" type="line" smooth="yes"/>
      <point x="327" y="607"/>
      <point x="206" y="489"/>
      <point x="141" y="424" type="curve"/>
      <point x="112" y="424" type="line"/>
      <point x="112" y="650" type="line"/>
      <point x="1119" y="650" type="line"/>
      <point x="1119" y="607" type="line"/>
    </contour>
    <contour>
      <point x="714" y="607" type="line"/>
      <point x="165" y="43" type="line"/>
      <point x="250" y="43" type="line"/>
      <point x="795" y="607" type="line"/>
    </contour>
  </outline>
</glyph>
<glyph name="asciicircum" format="1">
  <advance width="740"/>
  <unicode hex="005E"/>
  <outline>
    <contour>
      <point x="209" y="189" type="line" name="hr00"/>
      <point x="370" y="491" type="line"/>
      <point x="531" y="189" type="line"/>
      <point x="597" y="223" type="line"/>
      <point x="395" y="595" type="line"/>
      <point x="345" y="595" type="line"/>
      <point x="143" y="223" type="line"/>
    </contour>
  </outline>
</glyph>
<glyph name="b" format="1">
  <advance width="1256"/>
  <unicode hex="0062"/>
  <outline>
    <contour>
      <point x="1065" y="296" type="curve"/>
      <point x="1065" y="300" type="line"/>
      <point x="1099" y="311" smooth="yes"/>
      <point x="1174" y="347" smooth="yes"/>
      <point x="1174" y="428" type="curve" smooth="yes"/>
      <point x="1174" y="549" smooth="yes"/>
      <point x="1042" y="558" smooth="yes"/>
      <point x="876" y="558" type="curve" smooth="yes"/>
      <point x="73" y="558" type="line"/>
      <point x="73" y="515" type="line"/>
      <point x="178" y="515" type="line" smooth="yes"/>
      <point x="227" y="515" smooth="yes"/>
      <point x="267" y="473" smooth="yes"/>
      <point x="267" y="425" type="curve" smooth="yes"/>
      <point x="267" y="131" type="line" smooth="yes"/>
      <point x="267" y="66" smooth="yes"/>
      <point x="227" y="43" smooth="yes"/>
      <point x="178" y="43" type="curve" smooth="yes"/>
      <point x="73" y="43" type="line"/>
      <point x="73" y="0" type="line"/>
      <point x="961" y="0" type="line" smooth="yes"/>
      <point x="1060" y="0" smooth="yes"/>
      <point x="1225" y="29" smooth="yes"/>
      <point x="1225" y="152" type="curve" smooth="yes" name="hr01"/>
      <point x="1225" y="252"/>
      <point x="1110" y="287"/>
    </contour>
    <contour>
      <point x="605" y="434" type="line" smooth="yes"/>
      <point x="605" y="483" smooth="yes"/>
      <point x="642" y="515" smooth="yes"/>
      <point x="702" y="515" type="curve" smooth="yes"/>
      <point x="793" y="515" smooth="yes"/>
      <point x="844" y="479" smooth="yes"/>
      <point x="844" y="414" type="curve" smooth="yes"/>
      <point x="844" y="343" smooth="yes"/>
      <point x="785" y="313" smooth="yes"/>
      <point x="735" y="313" type="curve" smooth="yes"/>
      <point x="605" y="313" type="line"/>
    </contour>
    <contour>
      <point x="380" y="43" type="line"/>
      <point x="330" y="43" type="line"/>
      <point x="330" y="515" type="line"/>
      <point x="380" y="515" type="line"/>
    </contour>
    <contour>
      <point x="673" y="43" type="line"/>
      <point x="622" y="43" smooth="yes"/>
      <point x="605" y="78" smooth="yes"/>
      <point x="605" y="127" type="curve" smooth="yes"/>
      <point x="605" y="275" type="line"/>
      <point x="742" y="275" type="line" smooth="yes"/>
      <point x="817" y="275" smooth="yes"/>
      <point x="877" y="241" smooth="yes"/>
      <point x="877" y="159" type="curve" smooth="yes" name="hr02"/>
      <point x="877" y="69" smooth="yes"/>
      <point x="807" y="43" smooth="yes"/>
      <point x="751" y="43" type="curve" smooth="yes"/>
    </contour>
    <contour>
      <point x="974" y="409" type="curve" smooth="yes"/>
      <point x="974" y="370"/>
      <point x="937" y="328"/>
      <point x="890" y="310" type="curve"/>
      <point x="886" y="314" type="line"/>
      <point x="905" y="341" smooth="yes"/>
      <point x="919" y="375" smooth="yes"/>
      <point x="919" y="409" type="curve" smooth="yes" name="hr03"/>
      <point x="919" y="443"/>
      <point x="905" y="477"/>
      <point x="886" y="504" type="curve"/>
      <point x="890" y="507" type="line"/>
      <point x="937" y="489" smooth="yes"/>
      <point x="974" y="448" smooth="yes"/>
    </contour>
    <contour>
      <point x="1007" y="159" type="curve" smooth="yes"/>
      <point x="1007" y="110"/>
      <point x="969" y="62"/>
      <point x="912" y="40" type="curve"/>
      <point x="909" y="44" type="line"/>
      <point x="935" y="73" smooth="yes"/>
      <point x="953" y="115" smooth="yes"/>
      <point x="953" y="159" type="curve" smooth="yes" name="hr04"/>
      <point x="953" y="203"/>
      <point x="935" y="245"/>
      <point x="909" y="274" type="curve"/>
      <point x="912" y="278" type="line"/>
      <point x="969" y="256" smooth="yes"/>
      <point x="1007" y="208" smooth="yes"/>
    </contour>
  </outline>
</glyph>
<glyph name="d" format="1">
  <advance width="1268"/>
  <unicode hex="0064"/>
  <outline>
    <contour>
      <point x="70" y="558" type="line" name="hr00"/>
      <point x="70" y="515" type="line"/>
      <point x="175" y="515" type="line" smooth="yes"/>
      <point x="224" y="515" smooth="yes"/>
      <point x="265" y="474" smooth="yes"/>
      <point x="265" y="426" type="curve" smooth="yes"/>
      <point x="265" y="132" type="line" smooth="yes"/>
      <point x="265" y="66" smooth="yes"/>
      <point x="224" y="43" smooth="yes"/>
      <point x="175" y="43" type="curve" smooth="yes"/>
      <point x="70" y="43" type="line"/>
      <point x="70" y="0" type="line"/>
      <point x="799" y="0" type="line" smooth="yes"/>
      <point x="958" y="0" smooth="yes"/>
      <point x="1246" y="50" smooth="yes"/>
      <point x="1246" y="290" type="curve" smooth="yes"/>
      <point x="1246" y="487" smooth="yes"/>
      <point x="983" y="558" smooth="yes"/>
      <point x="722" y="558" type="curve" smooth="yes"/>
    </contour>
    <contour>
      <point x="377" y="42" type="line"/>
      <point x="328" y="42" type="line"/>
      <point x="328" y="515" type="line"/>
      <point x="377" y="515" type="line"/>
    </contour>
    <contour>
      <point x="670" y="43" type="line"/>
      <point x="618" y="43" smooth="yes"/>
      <point x="601" y="77" smooth="yes"/>
      <point x="601" y="126" type="curve" smooth="yes"/>
      <point x="601" y="435" type="line" smooth="yes"/>
      <point x="601" y="483" smooth="yes"/>
      <point x="638" y="515" smooth="yes"/>
      <point x="699" y="515" type="curve" smooth="yes"/>
      <point x="843" y="515" smooth="yes"/>
      <point x="886" y="412" smooth="yes"/>
      <point x="886" y="278" type="curve" smooth="yes"/>
      <point x="886" y="160" smooth="yes"/>
      <point x="850" y="43" smooth="yes"/>
      <point x="747" y="43" type="curve" smooth="yes"/>
    </contour>
    <contour>
      <point x="1030" y="278" type="curve"/>
      <point x="1030" y="185"/>
      <point x="984" y="96"/>
      <point x="900" y="49" type="curve"/>
      <point x="896" y="52" type="line"/>
      <point x="942" y="112" smooth="yes"/>
      <point x="967" y="195" smooth="yes"/>
      <point x="967" y="278" type="curve" smooth="yes"/>
      <point x="967" y="361"/>
      <point x="942" y="444"/>
      <point x="896" y="504" type="curve"/>
      <point x="900" y="507" type="line"/>
      <point x="984" y="460" smooth="yes"/>
      <point x="1030" y="371" smooth="yes"/>
    </contour>
  </outline>
</glyph>
<glyph name="f" format="1">
  <advance width="1070"/>
  <unicode hex="0066"/>
  <outline>
    <contour>
      <point x="673" y="43" type="line" name="hr00"/>
      <point x="622" y="43" smooth="yes"/>
      <point x="605" y="65" smooth="yes"/>
      <point x="605" y="127" type="curve" smooth="yes"/>
      <point x="605" y="193" type="line" smooth="yes"/>
      <point x="605" y="229" smooth="yes"/>
      <point x="620" y="266" smooth="yes"/>
      <point x="676" y="266" type="curve" smooth="yes"/>
      <point x="748" y="266"/>
      <point x="801" y="247"/>
      <point x="829" y="181" type="curve"/>
      <point x="866" y="181" type="line"/>
      <point x="866" y="399" type="line"/>
      <point x="830" y="399" type="line"/>
      <point x="802" y="357" smooth="yes"/>
      <point x="748" y="321" smooth="yes"/>
      <point x="676" y="321" type="curve" smooth="yes"/>
      <point x="620" y="321" smooth="yes"/>
      <point x="605" y="359" smooth="yes"/>
      <point x="605" y="394" type="curve" smooth="yes"/>
      <point x="605" y="435" type="line" smooth="yes"/>
      <point x="605" y="481" smooth="yes"/>
      <point x="639" y="515" smooth="yes"/>
      <point x="697" y="515" type="curve" smooth="yes"/>
      <point x="905" y="515"/>
      <point x="970" y="449"/>
      <point x="1016" y="393" type="curve"/>
      <point x="1043" y="393" type="line"/>
      <point x="1043" y="558" type="line"/>
      <point x="73" y="558" type="line"/>
      <point x="73" y="515" type="line"/>
      <point x="178" y="515" type="line" smooth="yes"/>
      <point x="227" y="515" smooth="yes"/>
      <point x="267" y="474" smooth="yes"/>
      <point x="267" y="425" type="curve" smooth="yes"/>
      <point x="267" y="132" type="line" smooth="yes"/>
      <point x="267" y="66" smooth="yes"/>
      <point x="227" y="43" smooth="yes"/>
      <point x="178" y="43" type="curve" smooth="yes"/>
      <point x="73" y="43" type="line"/>
      <point x="73" y="0" type="line"/>
      <point x="790" y="0" type="line"/>
      <point x="790" y="43" type="line"/>
    </contour>
    <contour>
      <point x="330" y="43" type="line"/>
      <point x="330" y="515" type="line"/>
      <point x="380" y="515" type="line"/>
      <point x="380" y="43" type="line"/>
    </contour>
  </outline>
</glyph>
<glyph name="g" format="1">
  <advance width="1169"/>
  <unicode hex="0067"/>
  <outline>
    <contour>
      <point x="516" y="334" type="line"/>
      <point x="516" y="292" type="line"/>
      <point x="616" y="292" type="line" smooth="yes"/>
      <point x="662" y="292" smooth="yes"/>
      <point x="710" y="256" smooth="yes"/>
      <point x="710" y="209" type="curve" smooth="yes"/>
      <point x="710" y="148" type="line" smooth="yes"/>
      <point x="710" y="40" smooth="yes"/>
      <point x="626" y="20" smooth="yes"/>
      <point x="574" y="20" type="curve" smooth="yes"/>
      <point x="439" y="20" smooth="yes"/>
      <point x="411" y="96" smooth="yes"/>
      <point x="411" y="175" type="curve" smooth="yes"/>
      <point x="411" y="416" type="line" smooth="yes"/>
      <point x="411" y="505" smooth="yes"/>
      <point x="490" y="540" smooth="yes"/>
      <point x="587" y="540" type="curve" smooth="yes"/>
      <point x="734" y="540"/>
      <point x="882" y="437"/>
      <point x="922" y="379" type="curve"/>
      <point x="967" y="379" type="line"/>
      <point x="967" y="563" type="line" name="hr01"/>
      <point x="920" y="563" type="line"/>
      <point x="920" y="527" type="line"/>
      <point x="798" y="563" smooth="yes"/>
      <point x="661" y="580" smooth="yes"/>
      <point x="541" y="580" type="curve" smooth="yes" name="hr02"/>
      <point x="265" y="580" smooth="yes"/>
      <point x="22" y="524" smooth="yes"/>
      <point x="22" y="289" type="curve" smooth="yes"/>
      <point x="22" y="68" smooth="yes"/>
      <point x="263" y="-22" smooth="yes"/>
      <point x="571" y="-22" type="curve" smooth="yes"/>
      <point x="774" y="-22" smooth="yes"/>
      <point x="872" y="50" smooth="yes"/>
      <point x="936" y="50" type="curve" smooth="yes"/>
      <point x="974" y="50"/>
      <point x="994" y="27"/>
      <point x="994" y="-4" type="curve" name="hr03"/>
      <point x="1039" y="-4" type="line"/>
      <point x="1039" y="292" type="line"/>
      <point x="1201" y="292" type="line"/>
      <point x="1201" y="334" type="line"/>
    </contour>
    <contour>
      <point x="823" y="182" type="line"/>
      <point x="823" y="116" smooth="yes"/>
      <point x="801" y="62" smooth="yes"/>
      <point x="783" y="62" type="curve" smooth="yes"/>
      <point x="777" y="62" smooth="yes"/>
      <point x="772" y="73" smooth="yes"/>
      <point x="772" y="126" type="curve" smooth="yes"/>
      <point x="772" y="291" type="line"/>
      <point x="823" y="291" type="line"/>
    </contour>
    <contour>
      <point x="139" y="287" type="curve"/>
      <point x="139" y="201"/>
      <point x="175" y="117"/>
      <point x="245" y="68" type="curve"/>
      <point x="242" y="63" type="line"/>
      <point x="153" y="103" smooth="yes"/>
      <point x="81" y="175" smooth="yes"/>
      <point x="81" y="287" type="curve" smooth="yes"/>
      <point x="81" y="400"/>
      <point x="153" y="472"/>
      <point x="242" y="512" type="curve"/>
      <point x="245" y="507" type="line"/>
      <point x="175" y="458" smooth="yes"/>
      <point x="139" y="374" smooth="yes"/>
    </contour>
  </outline>
</glyph>
<glyph name="h" format="1">
  <advance width="1482"/>
  <unicode hex="0068"/>
  <outline>
    <contour>
      <point x="1208" y="426" type="line" smooth="yes" name="hr00"/>
      <point x="1208" y="474" smooth="yes"/>
      <point x="1249" y="515" smooth="yes"/>
      <point x="1298" y="515" type="curve" smooth="yes"/>
      <point x="1403" y="515" type="line"/>
      <point x="1403" y="558" type="line"/>
      <point x="757" y="558" type="line"/>
      <point x="757" y="515" type="line"/>
      <point x="850" y="515" smooth="yes"/>
      <point x="871" y="482" smooth="yes"/>
      <point x="871" y="435" type="curve" smooth="yes"/>
      <point x="871" y="317" type="line"/>
      <point x="605" y="317" type="line"/>
      <point x="605" y="435" type="line" smooth="yes"/>
      <point x="605" y="482"/>
      <point x="626" y="515"/>
      <point x="719" y="515" type="curve"/>
      <point x="719" y="558" type="line"/>
      <point x="73" y="558" type="line"/>
      <point x="73" y="515" type="line"/>
      <point x="178" y="515" type="line" smooth="yes"/>
      <point x="227" y="515" smooth="yes"/>
      <point x="267" y="474" smooth="yes"/>
      <point x="267" y="426" type="curve" smooth="yes"/>
      <point x="267" y="132" type="line" smooth="yes"/>
      <point x="267" y="66" smooth="yes"/>
      <point x="227" y="43" smooth="yes"/>
      <point x="178" y="43" type="curve" smooth="yes"/>
      <point x="73" y="43" type="line"/>
      <point x="73" y="0" type="line"/>
      <point x="719" y="0" type="line"/>
      <point x="719" y="43" type="line"/>
      <point x="605" y="43" smooth="yes"/>
      <point x="605" y="78" smooth="yes"/>
      <point x="605" y="127" type="curve" smooth="yes"/>
      <point x="605" y="240" type="line" smooth="yes"/>
      <point x="605" y="256" smooth="yes"/>
      <point x="612" y="274" smooth="yes"/>
      <point x="638" y="274" type="curve" smooth="yes"/>
      <point x="838" y="274" type="line" smooth="yes"/>
      <point x="864" y="274" smooth="yes"/>
      <point x="871" y="256" smooth="yes"/>
      <point x="871" y="240" type="curve" smooth="yes"/>
      <point x="871" y="127" type="line" smooth="yes"/>
      <point x="871" y="78"/>
      <point x="870" y="43"/>
      <point x="757" y="43" type="curve"/>
      <point x="757" y="0" type="line"/>
      <point x="1403" y="0" type="line"/>
      <point x="1403" y="43" type="line"/>
      <point x="1298" y="43" type="line" smooth="yes"/>
      <point x="1249" y="43" smooth="yes"/>
      <point x="1208" y="65" smooth="yes"/>
      <point x="1208" y="131" type="curve" smooth="yes"/>
    </contour>
    <contour>
      <point x="380" y="515" type="line"/>
      <point x="380" y="43" type="line"/>
      <point x="330" y="43" type="line"/>
      <point x="330" y="515" type="line"/>
    </contour>
    <contour>
      <point x="985" y="515" type="line"/>
      <point x="985" y="43" type="line"/>
      <point x="935" y="43" type="line"/>
      <point x="935" y="515" type="line"/>
    </contour>
  </outline>
</glyph>
<glyph name="n" format="1">
  <advance width="1324"/>
  <unicode hex="006E"/>
  <outline>
    <contour>
      <point x="861" y="515" type="line" name="hr00"/>
      <point x="945" y="515" smooth="yes"/>
      <point x="1055" y="496" smooth="yes"/>
      <point x="1055" y="352" type="curve" smooth="yes"/>
      <point x="1055" y="335" smooth="yes"/>
      <point x="1044" y="331" smooth="yes"/>
      <point x="1039" y="331" type="curve" smooth="yes"/>
      <point x="1025" y="331" smooth="yes"/>
      <point x="963" y="370" smooth="yes"/>
      <point x="959" y="372" type="curve" smooth="yes"/>
      <point x="664" y="558" type="line"/>
      <point x="23" y="558" type="line"/>
      <point x="23" y="515" type="line"/>
      <point x="163" y="515" smooth="yes"/>
      <point x="301" y="442" smooth="yes"/>
      <point x="301" y="327" type="curve" smooth="yes"/>
      <point x="301" y="239" type="line" smooth="yes"/>
      <point x="301" y="94"/>
      <point x="147" y="43"/>
      <point x="33" y="43" type="curve"/>
      <point x="33" y="0" type="line"/>
      <point x="629" y="0" type="line"/>
      <point x="629" y="43" type="line"/>
      <point x="517" y="43" smooth="yes"/>
      <point x="362" y="94" smooth="yes"/>
      <point x="362" y="239" type="curve" smooth="yes"/>
      <point x="362" y="277" type="line" smooth="yes"/>
      <point x="362" y="323" smooth="yes"/>
      <point x="382" y="334" smooth="yes"/>
      <point x="401" y="334" type="curve" smooth="yes"/>
      <point x="422" y="334" smooth="yes"/>
      <point x="443" y="322" smooth="yes"/>
      <point x="442" y="322" type="curve" smooth="yes"/>
      <point x="1034" y="-36" type="line"/>
      <point x="1115" y="-36" type="line"/>
      <point x="1115" y="352" type="line" smooth="yes"/>
      <point x="1115" y="496"/>
      <point x="1225" y="515"/>
      <point x="1309" y="515" type="curve"/>
      <point x="1309" y="558" type="line"/>
      <point x="861" y="558" type="line"/>
    </contour>
    <contour>
      <point x="332" y="473" type="line"/>
      <point x="332" y="515" type="line"/>
      <point x="350" y="515" type="line"/>
      <point x="1033" y="92" type="line"/>
      <point x="1033" y="38" type="line"/>
    </contour>
  </outline>
</glyph>
<glyph name="o" format="1">
  <advance width="1144"/>
  <unicode hex="006F"/>
  <outline>
    <contour>
      <point x="1121" y="280" type="curve" smooth="yes"/>
      <point x="1121" y="445" smooth="yes"/>
      <point x="908" y="580" smooth="yes"/>
      <point x="572" y="580" type="curve" smooth="yes"/>
      <point x="236" y="580" smooth="yes"/>
      <point x="22" y="445" smooth="yes"/>
      <point x="22" y="280" type="curve" smooth="yes"/>
      <point x="22" y="113" smooth="yes"/>
      <point x="269" y="-22" smooth="yes"/>
      <point x="572" y="-22" type="curve" smooth="yes"/>
      <point x="876" y="-22" smooth="yes"/>
      <point x="1121" y="113" smooth="yes"/>
    </contour>
    <contour>
      <point x="572" y="536" type="curve" smooth="yes"/>
      <point x="713" y="536" smooth="yes"/>
      <point x="751" y="448" smooth="yes"/>
      <point x="751" y="278" type="curve" smooth="yes"/>
      <point x="751" y="108" smooth="yes"/>
      <point x="685" y="21" smooth="yes"/>
      <point x="572" y="21" type="curve" smooth="yes"/>
      <point x="459" y="21" smooth="yes"/>
      <point x="393" y="108" smooth="yes"/>
      <point x="393" y="278" type="curve" smooth="yes"/>
      <point x="393" y="448" smooth="yes"/>
      <point x="432" y="536" smooth="yes"/>
    </contour>
    <contour>
      <point x="130" y="279" type="curve" smooth="yes" name="hr01"/>
      <point x="130" y="160"/>
      <point x="237" y="68"/>
      <point x="386" y="29" type="curve"/>
      <point x="384" y="22" type="line"/>
      <point x="196" y="62" smooth="yes"/>
      <point x="62" y="156" smooth="yes"/>
      <point x="62" y="280" type="curve" smooth="yes"/>
      <point x="62" y="403"/>
      <point x="196" y="497"/>
      <point x="385" y="536" type="curve"/>
      <point x="387" y="530" type="line"/>
      <point x="237" y="490" smooth="yes"/>
      <point x="130" y="400" smooth="yes"/>
    </contour>
    <contour>
      <point x="771" y="523" type="line"/>
      <point x="840" y="464" smooth="yes"/>
      <point x="883" y="377" smooth="yes"/>
      <point x="883" y="280" type="curve" smooth="yes"/>
      <point x="883" y="181"/>
      <point x="839" y="94"/>
      <point x="770" y="35" type="curve"/>
      <point x="766" y="38" type="line"/>
      <point x="796" y="113" smooth="yes"/>
      <point x="814" y="193" smooth="yes"/>
      <point x="814" y="279" type="curve" smooth="yes"/>
      <point x="814" y="366"/>
      <point x="796" y="447"/>
      <point x="767" y="520" type="curve"/>
    </contour>
  </outline>
</glyph>
<glyph name="p" format="1">
  <advance width="1249"/>
  <unicode hex="0070"/>
  <outline>
    <contour>
      <point x="73" y="558" type="line" name="hr00"/>
      <point x="73" y="515" type="line"/>
      <point x="179" y="515" type="line" smooth="yes"/>
      <point x="229" y="515" smooth="yes"/>
      <point x="269" y="473" smooth="yes"/>
      <point x="269" y="425" type="curve" smooth="yes"/>
      <point x="269" y="131" type="line" smooth="yes"/>
      <point x="269" y="66" smooth="yes"/>
      <point x="229" y="43" smooth="yes"/>
      <point x="179" y="43" type="curve" smooth="yes"/>
      <point x="73" y="43" type="line"/>
      <point x="73" y="0" type="line"/>
      <point x="802" y="0" type="line"/>
      <point x="802" y="43" type="line"/>
      <point x="696" y="43" type="line" smooth="yes"/>
      <point x="647" y="43" smooth="yes"/>
      <point x="607" y="66" smooth="yes"/>
      <point x="607" y="131" type="curve" smooth="yes"/>
      <point x="607" y="186" type="line" smooth="yes"/>
      <point x="607" y="226" smooth="yes"/>
      <point x="621" y="242" smooth="yes"/>
      <point x="651" y="242" type="curve" smooth="yes"/>
      <point x="967" y="242" type="line" smooth="yes"/>
      <point x="1121" y="242" smooth="yes"/>
      <point x="1236" y="283" smooth="yes"/>
      <point x="1236" y="401" type="curve" smooth="yes"/>
      <point x="1236" y="541" smooth="yes"/>
      <point x="1060" y="558" smooth="yes"/>
      <point x="933" y="558" type="curve" smooth="yes"/>
    </contour>
    <contour>
      <point x="331" y="43" type="line"/>
      <point x="331" y="515" type="line"/>
      <point x="382" y="515" type="line"/>
      <point x="382" y="43" type="line"/>
    </contour>
    <contour>
      <point x="647" y="285" type="line"/>
      <point x="625" y="285" smooth="yes"/>
      <point x="607" y="303" smooth="yes"/>
      <point x="607" y="325" type="curve" smooth="yes"/>
      <point x="607" y="474" type="line" smooth="yes"/>
      <point x="607" y="497" smooth="yes"/>
      <point x="625" y="515" smooth="yes"/>
      <point x="647" y="515" type="curve" smooth="yes"/>
      <point x="733" y="515" type="line" smooth="yes"/>
      <point x="778" y="515" smooth="yes"/>
      <point x="869" y="487" smooth="yes"/>
      <point x="869" y="400" type="curve" smooth="yes"/>
      <point x="869" y="315" smooth="yes"/>
      <point x="778" y="285" smooth="yes"/>
      <point x="733" y="285" type="curve" smooth="yes"/>
    </contour>
    <contour>
      <point x="995" y="400" type="curve"/>
      <point x="995" y="354"/>
      <point x="962" y="308"/>
      <point x="923" y="291" type="curve"/>
      <point x="919" y="294" type="line"/>
      <point x="936" y="324" smooth="yes"/>
      <point x="941" y="362" smooth="yes"/>
      <point x="941" y="400" type="curve" smooth="yes"/>
      <point x="941" y="438"/>
      <point x="936" y="476"/>
      <point x="919" y="506" type="curve"/>
      <point x="923" y="509" type="line"/>
      <point x="962" y="492" smooth="yes"/>
      <point x="995" y="446" smooth="yes"/>
    </contour>
  </outline>
</glyph>
<glyph name="s" format="1">
  <advance width="1105"/>
  <unicode hex="0073"/>
  <outline>
    <contour>
      <point x="95" y="379" type="curve"/>
      <point x="95" y="158" smooth="yes"/>
      <point x="742" y="151" smooth="yes"/>
      <point x="742" y="58" type="curve" smooth="yes"/>
      <point x="742" y="25" smooth="yes"/>
      <point x="668" y="19" smooth="yes"/>
      <point x="604" y="19" type="curve" smooth="yes"/>
      <point x="385" y="19"/>
      <point x="174" y="159"/>
      <point x="139" y="240" type="curve"/>
      <point x="94" y="240" type="line"/>
      <point x="94" y="-4" type="line" name="hr01"/>
      <point x="139" y="-4" type="line"/>
      <point x="162" y="45" type="line"/>
      <point x="299" y="4" smooth="yes"/>
      <point x="423" y="-22" smooth="yes"/>
      <point x="605" y="-22" type="curve" smooth="yes" name="hr02"/>
      <point x="852" y="-22" smooth="yes"/>
      <point x="1011" y="35" smooth="yes"/>
      <point x="1011" y="175" type="curve" smooth="yes"/>
      <point x="1011" y="445" smooth="yes"/>
      <point x="386" y="376" smooth="yes"/>
      <point x="386" y="488" type="curve" smooth="yes"/>
      <point x="386" y="528" smooth="yes"/>
      <point x="432" y="538" smooth="yes"/>
      <point x="490" y="538" type="curve" smooth="yes"/>
      <point x="610" y="538"/>
      <point x="836" y="467"/>
      <point x="936" y="370" type="curve"/>
      <point x="980" y="370" type="line"/>
      <point x="980" y="561" type="line" name="hr03"/>
      <point x="935" y="561" type="line"/>
      <point x="931" y="550"/>
      <point x="924" y="536"/>
      <point x="920" y="518" type="curve"/>
      <point x="809" y="547" smooth="yes"/>
      <point x="670" y="578" smooth="yes"/>
      <point x="485" y="578" type="curve" smooth="yes" name="hr04"/>
      <point x="337" y="578" smooth="yes"/>
      <point x="95" y="575" smooth="yes"/>
    </contour>
    <contour>
      <point x="172" y="442" type="line"/>
      <point x="175" y="344" smooth="yes"/>
      <point x="340" y="282" smooth="yes"/>
      <point x="506" y="244" type="curve" smooth="yes"/>
      <point x="680" y="204" smooth="yes"/>
      <point x="844" y="191" smooth="yes"/>
      <point x="844" y="77" type="curve" smooth="yes"/>
      <point x="844" y="74"/>
      <point x="839" y="75"/>
      <point x="839" y="72" type="curve"/>
      <point x="790" y="127" smooth="yes"/>
      <point x="730" y="142" smooth="yes"/>
      <point x="604" y="171" type="curve" smooth="yes"/>
      <point x="296" y="242" smooth="yes"/>
      <point x="152" y="298" smooth="yes"/>
      <point x="152" y="391" type="curve" smooth="yes" name="hr05"/>
      <point x="152" y="407"/>
      <point x="155" y="424"/>
      <point x="165" y="442" type="curve"/>
    </contour>
  </outline>
</glyph>
<glyph name="t" format="1">
  <advance width="958"/>
  <unicode hex="0074"/>
  <outline>
    <contour>
      <point x="677" y="515" type="curve" name="hr00"/>
      <point x="728" y="515"/>
      <point x="873" y="310"/>
      <point x="873" y="310" type="curve"/>
      <point x="909" y="310" type="line"/>
      <point x="895" y="558" type="line"/>
      <point x="63" y="558" type="line"/>
      <point x="49" y="310" type="line"/>
      <point x="85" y="310" type="line"/>
      <point x="85" y="310" smooth="yes"/>
      <point x="230" y="515" smooth="yes"/>
      <point x="282" y="515" type="curve" smooth="yes"/>
      <point x="302" y="515" smooth="yes"/>
      <point x="310" y="499" smooth="yes"/>
      <point x="310" y="476" type="curve" smooth="yes"/>
      <point x="310" y="132" type="line" smooth="yes"/>
      <point x="310" y="66" smooth="yes"/>
      <point x="270" y="43" smooth="yes"/>
      <point x="221" y="43" type="curve" smooth="yes"/>
      <point x="115" y="43" type="line"/>
      <point x="115" y="0" type="line"/>
      <point x="843" y="0" type="line"/>
      <point x="843" y="43" type="line"/>
      <point x="737" y="43" type="line" smooth="yes"/>
      <point x="688" y="43" smooth="yes"/>
      <point x="647" y="66" smooth="yes"/>
      <point x="647" y="132" type="curve" smooth="yes"/>
      <point x="647" y="476" type="line" smooth="yes"/>
      <point x="647" y="499" smooth="yes"/>
      <point x="656" y="515" smooth="yes"/>
    </contour>
    <contour>
      <point x="422" y="43" type="line"/>
      <point x="373" y="43" type="line"/>
      <point x="373" y="515" type="line"/>
      <point x="422" y="515" type="line"/>
    </contour>
  </outline>
</glyph>
<glyph name="u" format="1">
  <advance width="1047"/>
  <unicode hex="0075"/>
  <outline>
    <contour>
      <point x="650" y="558" type="line" name="hr00"/>
      <point x="650" y="515" type="line"/>
      <point x="702" y="515" smooth="yes"/>
      <point x="811" y="498" smooth="yes"/>
      <point x="811" y="353" type="curve" smooth="yes"/>
      <point x="811" y="147" type="line" smooth="yes"/>
      <point x="811" y="79" smooth="yes"/>
      <point x="776" y="18" smooth="yes"/>
      <point x="598" y="18" type="curve" smooth="yes"/>
      <point x="528" y="18" smooth="yes"/>
      <point x="502" y="59" smooth="yes"/>
      <point x="502" y="141" type="curve" smooth="yes"/>
      <point x="502" y="427" type="line" smooth="yes"/>
      <point x="502" y="494" smooth="yes"/>
      <point x="543" y="515" smooth="yes"/>
      <point x="591" y="515" type="curve" smooth="yes"/>
      <point x="607" y="515" type="line"/>
      <point x="607" y="558" type="line"/>
      <point x="40" y="558" type="line"/>
      <point x="40" y="515" type="line"/>
      <point x="76" y="515" type="line" smooth="yes"/>
      <point x="124" y="515" smooth="yes"/>
      <point x="165" y="494" smooth="yes"/>
      <point x="165" y="427" type="curve" smooth="yes"/>
      <point x="165" y="151" type="line" smooth="yes"/>
      <point x="165" y="82" smooth="yes"/>
      <point x="184" y="-22" smooth="yes"/>
      <point x="575" y="-22" type="curve" smooth="yes"/>
      <point x="862" y="-22" smooth="yes"/>
      <point x="872" y="95" smooth="yes"/>
      <point x="872" y="171" type="curve" smooth="yes"/>
      <point x="872" y="353" type="line"/>
      <point x="872" y="498"/>
      <point x="958" y="515"/>
      <point x="1042" y="515" type="curve"/>
      <point x="1042" y="558" type="line"/>
    </contour>
    <contour>
      <point x="277" y="515" type="line"/>
      <point x="277" y="76" type="line"/>
      <point x="277" y="76" smooth="yes"/>
      <point x="228" y="90" smooth="yes"/>
      <point x="228" y="177" type="curve" smooth="yes"/>
      <point x="228" y="515" type="line"/>
    </contour>
  </outline>
</glyph>
<glyph name="v" format="1">
  <advance width="1072"/>
  <unicode hex="0076"/>
  <outline>
    <contour>
      <point x="1085" y="558" type="line" name="hr00"/>
      <point x="640" y="558" type="line"/>
      <point x="640" y="515" type="line"/>
      <point x="685" y="515" type="line" smooth="yes"/>
      <point x="773" y="515" smooth="yes"/>
      <point x="832" y="462" smooth="yes"/>
      <point x="832" y="406" type="curve" smooth="yes"/>
      <point x="832" y="386" smooth="yes"/>
      <point x="824" y="364" smooth="yes"/>
      <point x="808" y="346" type="curve" smooth="yes"/>
      <point x="698" y="229" type="line"/>
      <point x="542" y="387" type="line" smooth="yes"/>
      <point x="525" y="404" smooth="yes"/>
      <point x="517" y="427" smooth="yes"/>
      <point x="517" y="448" type="curve" smooth="yes"/>
      <point x="517" y="483" smooth="yes"/>
      <point x="538" y="515" smooth="yes"/>
      <point x="564" y="515" type="curve" smooth="yes"/>
      <point x="590" y="515" type="line"/>
      <point x="590" y="558" type="line"/>
      <point x="-14" y="558" type="line"/>
      <point x="-14" y="515" type="line"/>
      <point x="45" y="515" type="line"/>
      <point x="526" y="-19" type="line"/>
      <point x="558" y="-19" type="line"/>
      <point x="1040" y="515" type="line"/>
      <point x="1085" y="515" type="line"/>
    </contour>
    <contour>
      <point x="575" y="61" type="line"/>
      <point x="541" y="24" type="line"/>
      <point x="100" y="515" type="line"/>
      <point x="167" y="515" type="line"/>
    </contour>
  </outline>
</glyph>
<glyph name="w" format="1">
  <advance width="1725"/>
  <unicode hex="0077"/>
  <outline>
    <contour>
      <point x="1293" y="558" type="line" name="hr00"/>
      <point x="1293" y="515" type="line"/>
      <point x="1338" y="515" type="line" smooth="yes"/>
      <point x="1426" y="515" smooth="yes"/>
      <point x="1485" y="461" smooth="yes"/>
      <point x="1485" y="406" type="curve" smooth="yes"/>
      <point x="1485" y="386" smooth="yes"/>
      <point x="1478" y="364" smooth="yes"/>
      <point x="1461" y="346" type="curve" smooth="yes"/>
      <point x="1352" y="229" type="line"/>
      <point x="1196" y="387" type="line" smooth="yes"/>
      <point x="1178" y="405" smooth="yes"/>
      <point x="1170" y="428" smooth="yes"/>
      <point x="1170" y="449" type="curve" smooth="yes"/>
      <point x="1170" y="484" smooth="yes"/>
      <point x="1191" y="515" smooth="yes"/>
      <point x="1217" y="515" type="curve" smooth="yes"/>
      <point x="1244" y="515" type="line"/>
      <point x="1244" y="558" type="line"/>
      <point x="640" y="558" type="line"/>
      <point x="640" y="515" type="line"/>
      <point x="698" y="515" type="line"/>
      <point x="828" y="370" type="line"/>
      <point x="698" y="226" type="line"/>
      <point x="542" y="387" type="line" smooth="yes"/>
      <point x="525" y="404" smooth="yes"/>
      <point x="517" y="427" smooth="yes"/>
      <point x="517" y="448" type="curve" smooth="yes"/>
      <point x="517" y="483"/>
      <point x="537" y="515"/>
      <point x="563" y="515" type="curve"/>
      <point x="590" y="515" type="line"/>
      <point x="590" y="558" type="line"/>
      <point x="-14" y="558" type="line"/>
      <point x="-14" y="515" type="line"/>
      <point x="45" y="515" type="line"/>
      <point x="526" y="-19" type="line"/>
      <point x="558" y="-19" type="line"/>
      <point x="868" y="325" type="line"/>
      <point x="1179" y="-19" type="line"/>
      <point x="1211" y="-19" type="line"/>
      <point x="1695" y="515" type="line"/>
      <point x="1739" y="515" type="line"/>
      <point x="1739" y="558" type="line"/>
    </contour>
    <contour>
      <point x="542" y="24" type="line"/>
      <point x="99" y="515" type="line"/>
      <point x="167" y="515" type="line"/>
      <point x="574" y="61" type="line"/>
    </contour>
    <contour>
      <point x="1195" y="24" type="line"/>
      <point x="752" y="515" type="line"/>
      <point x="821" y="515" type="line"/>
      <point x="1228" y="61" type="line"/>
    </contour>
  </outline>
</glyph>
<glyph name="z" format="1">
  <advance width="1019"/>
  <unicode hex="007A"/>
  <outline>
    <contour>
      <point x="965" y="515" type="line" name="hr00"/>
      <point x="965" y="558" type="line"/>
      <point x="104" y="558" type="line"/>
      <point x="104" y="361" type="line"/>
      <point x="132" y="361" type="line"/>
      <point x="187" y="416" smooth="yes"/>
      <point x="290" y="515" smooth="yes"/>
      <point x="495" y="515" type="curve" smooth="yes"/>
      <point x="537" y="515" type="line"/>
      <point x="76" y="43" type="line"/>
      <point x="54" y="43" type="line"/>
      <point x="54" y="0" type="line"/>
      <point x="952" y="0" type="line"/>
      <point x="952" y="197" type="line"/>
      <point x="924" y="197" type="line"/>
      <point x="859" y="130" smooth="yes"/>
      <point x="770" y="43" smooth="yes"/>
      <point x="577" y="43" type="curve" smooth="yes"/>
      <point x="483" y="43" type="line"/>
      <point x="945" y="515" type="line"/>
    </contour>
    <contour>
      <point x="158" y="43" type="line"/>
      <point x="617" y="515" type="line"/>
      <point x="688" y="515" type="line"/>
      <point x="229" y="43" type="line"/>
    </contour>
  </outline>
</glyph>
<glyph name="bar" format="1">
  <advance width="365"/>
  <unicode hex="007C"/>
  <outline>
    <contour>
      <point x="215" y="715" type="line" name="hr00"/>
      <point x="150" y="715" type="line"/>
      <point x="150" y="-95" type="line"/>
      <point x="215" y="-95" type="line"/>
    </contour>
  </outline>
</glyph>
<glyph name="asciitilde" format="1">
  <advance width="740"/>
  <unicode hex="007E"/>
  <outline>
    <contour>
      <point x="640" y="379" type="line" name="hr00"/>
      <point x="603" y="412" smooth="yes"/>
      <point x="566" y="424" smooth="yes"/>
      <point x="528" y="424" type="curve" smooth="yes"/>
      <point x="423" y="424" smooth="yes"/>
      <point x="314" y="333" smooth="yes"/>
      <point x="211" y="333" type="curve" smooth="yes"/>
      <point x="173" y="333"/>
      <point x="136" y="344"/>
      <point x="100" y="378" type="curve"/>
      <point x="100" y="298" type="line"/>
      <point x="130" y="263" smooth="yes"/>
      <point x="170" y="253" smooth="yes"/>
      <point x="212" y="253" type="curve" smooth="yes"/>
      <point x="328" y="253" smooth="yes"/>
      <point x="412" y="344" smooth="yes"/>
      <point x="525" y="344" type="curve" smooth="yes"/>
      <point x="568" y="344"/>
      <point x="608" y="332"/>
      <point x="640" y="299" type="curve"/>
    </contour>
  </outline>
</glyph>
<glyph name="sterling" format="1">
  <advance width="1109"/>
  <unicode hex="00A3"/>
  <outline>
    <contour>
      <point x="680" y="113" type="line"/>
      <point x="754" y="84" smooth="yes"/>
      <point x="832" y="61" smooth="yes"/>
      <point x="915" y="61" type="curve" smooth="yes"/>
      <point x="1031" y="61" smooth="yes"/>
      <point x="1034" y="180" smooth="yes"/>
      <point x="1063" y="180" type="curve" smooth="yes"/>
      <point x="1083" y="180" smooth="yes"/>
      <point x="1094" y="140" smooth="yes"/>
      <point x="1094" y="105" type="curve" smooth="yes"/>
      <point x="1094" y="50" smooth="yes"/>
      <point x="1068" y="-22" smooth="yes"/>
      <point x="970" y="-22" type="curve" smooth="yes"/>
      <point x="890" y="-22"/>
      <point x="778" y="29"/>
      <point x="660" y="82" type="curve"/>
    </contour>
    <contour>
      <point x="446" y="165" type="line"/>
      <point x="403" y="177" smooth="yes"/>
      <point x="361" y="185" smooth="yes"/>
      <point x="324" y="185" type="curve" smooth="yes"/>
      <point x="224" y="185" smooth="yes"/>
      <point x="141" y="145" smooth="yes"/>
      <point x="141" y="89" type="curve" smooth="yes"/>
      <point x="141" y="51" smooth="yes"/>
      <point x="192" y="32" smooth="yes"/>
      <point x="250" y="32" type="curve" smooth="yes"/>
      <point x="331" y="32" smooth="yes"/>
      <point x="429" y="68" smooth="yes"/>
      <point x="429" y="135" type="curve" smooth="yes"/>
      <point x="429" y="250" smooth="yes"/>
      <point x="151" y="369" smooth="yes"/>
      <point x="151" y="508" type="curve" smooth="yes"/>
      <point x="151" y="646" smooth="yes"/>
      <point x="385" y="671" smooth="yes"/>
      <point x="577" y="671" type="curve" smooth="yes"/>
      <point x="768" y="671"/>
      <point x="922" y="610"/>
      <point x="922" y="610" type="curve" name="hr01"/>
      <point x="922" y="671" type="line"/>
      <point x="970" y="671" type="line"/>
      <point x="970" y="453" type="line"/>
      <point x="921" y="453" type="line"/>
      <point x="780" y="593" smooth="yes"/>
      <point x="684" y="619" smooth="yes"/>
      <point x="591" y="619" type="curve" smooth="yes"/>
      <point x="499" y="619" smooth="yes"/>
      <point x="476" y="581" smooth="yes"/>
      <point x="476" y="549" type="curve" smooth="yes"/>
      <point x="476" y="457" smooth="yes"/>
      <point x="772" y="364" smooth="yes"/>
      <point x="772" y="175" type="curve" smooth="yes"/>
      <point x="772" y="-18" smooth="yes"/>
      <point x="486" y="-22" smooth="yes"/>
      <point x="336" y="-22" type="curve" smooth="yes"/>
      <point x="251" y="-22" smooth="yes"/>
      <point x="45" y="-21" smooth="yes"/>
      <point x="45" y="83" type="curve" smooth="yes"/>
      <point x="45" y="154" smooth="yes"/>
      <point x="142" y="227" smooth="yes"/>
      <point x="324" y="227" type="curve" smooth="yes"/>
      <point x="360" y="227"/>
      <point x="396" y="221"/>
      <point x="433" y="210" type="curve" name="hr02"/>
    </contour>
    <contour>
      <point x="398" y="30" type="line"/>
      <point x="477" y="39" smooth="yes"/>
      <point x="536" y="88" smooth="yes"/>
      <point x="536" y="164" type="curve" smooth="yes"/>
      <point x="536" y="314" smooth="yes"/>
      <point x="261" y="454" smooth="yes"/>
      <point x="261" y="535" type="curve" smooth="yes"/>
      <point x="261" y="565"/>
      <point x="275" y="589"/>
      <point x="287" y="602" type="curve"/>
      <point x="284" y="607" type="line"/>
      <point x="261" y="598" smooth="yes"/>
      <point x="218" y="573" smooth="yes"/>
      <point x="218" y="523" type="curve" smooth="yes"/>
      <point x="218" y="420" smooth="yes"/>
      <point x="488" y="272" smooth="yes"/>
      <point x="488" y="160" type="curve" smooth="yes"/>
      <point x="488" y="84"/>
      <point x="428" y="49"/>
      <point x="396" y="36" type="curve"/>
    </contour>
    <contour>
      <point x="65" y="385" type="line"/>
      <point x="275" y="385" type="line"/>
      <point x="275" y="335" type="line"/>
      <point x="65" y="335" type="line"/>
    </contour>
    <contour>
      <point x="592" y="385" type="line"/>
      <point x="858" y="385" type="line"/>
      <point x="858" y="335" type="line" name="hr03"/>
      <point x="592" y="335" type="line"/>
    </contour>
  </outline>
</glyph>
<glyph name="brokenbar" format="1">
  <advance width="365"/>
  <unicode hex="00A6"/>
  <outline>
    <contour>
      <point x="215" y="233" type="line" name="hr00"/>
      <point x="150" y="233" type="line"/>
      <point x="150" y="-95" type="line"/>
      <point x="215" y="-95" type="line"/>
    </contour>
    <contour>
      <point x="215" y="715" type="line"/>
      <point x="150" y="715" type="line"/>
      <point x="150" y="387" type="line"/>
      <point x="215" y="387" type="line"/>
    </contour>
  </outline>
</glyph>
<glyph name="guillemotleft" format="1">
  <advance width="678"/>
  <unicode hex="00AB"/>
  <outline>
    <contour>
      <point x="0" y="258" type="line" name="hr00"/>
      <point x="273" y="8" type="line"/>
      <point x="273" y="255" type="line"/>
      <point x="161" y="359" type="line"/>
      <point x="273" y="462" type="line"/>
      <point x="273" y="549" type="line"/>
      <point x="0" y="300" type="line"/>
    </contour>
    <contour>
      <point x="235" y="181" type="line"/>
      <point x="235" y="119" type="line"/>
      <point x="66" y="272" type="line"/>
      <point x="100" y="303" type="line"/>
    </contour>
    <contour>
      <point x="325" y="258" type="line"/>
      <point x="598" y="8" type="line"/>
      <point x="598" y="255" type="line"/>
      <point x="486" y="359" type="line"/>
      <point x="598" y="462" type="line"/>
      <point x="598" y="549" type="line"/>
      <point x="325" y="300" type="line"/>
    </contour>
    <contour>
      <point x="560" y="181" type="line"/>
      <point x="560" y="119" type="line"/>
      <point x="391" y="272" type="line"/>
      <point x="425" y="303" type="line"/>
    </contour>
  </outline>
</glyph>
<glyph name="acute" format="1">
  <advance width="650"/>
  <unicode hex="00B4"/>
  <outline>
    <contour>
      <point x="452" y="642" type="curve"/>
      <point x="576" y="671"/>
      <point x="600" y="770"/>
      <point x="600" y="770" type="curve"/>
      <point x="309" y="770" type="line"/>
      <point x="259" y="700"/>
      <point x="206" y="660"/>
      <point x="50" y="660" type="curve"/>
      <point x="50" y="624" type="line" name="hr01"/>
      <point x="104" y="624" type="line" smooth="yes"/>
      <point x="191" y="624" smooth="yes"/>
      <point x="374" y="624" smooth="yes"/>
    </contour>
    <contour>
      <point x="248" y="667" type="line"/>
      <point x="278" y="677"/>
      <point x="331" y="705"/>
      <point x="349" y="742" type="curve"/>
      <point x="413" y="742" type="line"/>
      <point x="396" y="717"/>
      <point x="352" y="668"/>
      <point x="248" y="663" type="curve"/>
    </contour>
  </outline>
</glyph>
<glyph name="mu" format="1">
  <advance width="1439"/>
  <unicode hex="00B5"/>
  <outline>
    <contour>
      <point x="540" y="43" type="line"/>
      <point x="577" y="32" smooth="yes"/>
      <point x="612" y="27" smooth="yes"/>
      <point x="645" y="27" type="curve" smooth="yes" name="hr01"/>
      <point x="733" y="27"/>
      <point x="808" y="64"/>
      <point x="881" y="129" type="curve"/>
      <point x="881" y="0" type="line" name="hr02"/>
      <point x="1414" y="0" type="line"/>
      <point x="1414" y="43" type="line"/>
      <point x="1308" y="43" type="line" smooth="yes"/>
      <point x="1259" y="43" smooth="yes"/>
      <point x="1218" y="84" smooth="yes"/>
      <point x="1218" y="132" type="curve" smooth="yes"/>
      <point x="1218" y="559" type="line"/>
      <point x="685" y="559" type="line"/>
      <point x="685" y="515" type="line"/>
      <point x="791" y="515" type="line" smooth="yes"/>
      <point x="840" y="515" smooth="yes"/>
      <point x="881" y="492" smooth="yes"/>
      <point x="881" y="426" type="curve" smooth="yes"/>
      <point x="881" y="192" type="line"/>
      <point x="835" y="147" smooth="yes"/>
      <point x="758" y="103" smooth="yes"/>
      <point x="676" y="103" type="curve" smooth="yes" name="hr03"/>
      <point x="566" y="103" smooth="yes"/>
      <point x="553" y="177" smooth="yes"/>
      <point x="553" y="225" type="curve" smooth="yes"/>
      <point x="553" y="559" type="line"/>
      <point x="20" y="559" type="line"/>
      <point x="20" y="515" type="line"/>
      <point x="126" y="515" type="line" smooth="yes"/>
      <point x="175" y="515" smooth="yes"/>
      <point x="216" y="492" smooth="yes"/>
      <point x="216" y="426" type="curve" smooth="yes"/>
      <point x="216" y="-41" type="line" smooth="yes"/>
      <point x="216" y="-174" smooth="yes"/>
      <point x="321" y="-199" smooth="yes"/>
      <point x="454" y="-199" type="curve" smooth="yes"/>
      <point x="750" y="-199" type="line"/>
      <point x="750" y="-155" type="line"/>
      <point x="669" y="-155" type="line" smooth="yes"/>
      <point x="576" y="-155" smooth="yes"/>
      <point x="540" y="-111" smooth="yes"/>
      <point x="540" y="-44" type="curve" smooth="yes" name="hr04"/>
    </contour>
    <contour>
      <point x="211" y="528" type="line"/>
      <point x="281" y="515" smooth="yes"/>
      <point x="330" y="484" smooth="yes"/>
      <point x="330" y="426" type="curve" smooth="yes"/>
      <point x="330" y="-30" type="line" smooth="yes"/>
      <point x="330" y="-96"/>
      <point x="351" y="-129"/>
      <point x="383" y="-145" type="curve"/>
      <point x="382" y="-153" type="line"/>
      <point x="321" y="-142" smooth="yes"/>
      <point x="279" y="-110" smooth="yes"/>
      <point x="279" y="-30" type="curve" smooth="yes"/>
      <point x="279" y="426" type="line" smooth="yes"/>
      <point x="279" y="477"/>
      <point x="251" y="506"/>
      <point x="209" y="521" type="curve"/>
    </contour>
    <contour>
      <point x="876" y="528" type="line"/>
      <point x="946" y="515" smooth="yes"/>
      <point x="995" y="484" smooth="yes"/>
      <point x="995" y="426" type="curve" smooth="yes"/>
      <point x="995" y="43" type="line"/>
      <point x="944" y="43" type="line"/>
      <point x="944" y="426" type="line" smooth="yes"/>
      <point x="944" y="477"/>
      <point x="916" y="506"/>
      <point x="874" y="521" type="curve"/>
    </contour>
  </outline>
</glyph>
<glyph name="questiondown" format="1">
  <advance width="1092"/>
  <unicode hex="00BF"/>
  <outline>
    <contour>
      <point x="811" y="644" type="curve" smooth="yes"/>
      <point x="811" y="721" smooth="yes"/>
      <point x="709" y="783" smooth="yes"/>
      <point x="583" y="783" type="curve" smooth="yes"/>
      <point x="456" y="783" smooth="yes"/>
      <point x="353" y="721" smooth="yes"/>
      <point x="353" y="644" type="curve" smooth="yes"/>
      <point x="353" y="567" smooth="yes"/>
      <point x="456" y="505" smooth="yes"/>
      <point x="583" y="505" type="curve" smooth="yes"/>
      <point x="709" y="505" smooth="yes"/>
      <point x="811" y="567" smooth="yes"/>
    </contour>
    <contour>
      <point x="95" y="148" type="curve" smooth="yes"/>
      <point x="95" y="7" smooth="yes"/>
      <point x="334" y="-26" smooth="yes"/>
      <point x="575" y="-26" type="curve" smooth="yes"/>
      <point x="749" y="-26"/>
      <point x="850" y="-3"/>
      <point x="938" y="22" type="curve"/>
      <point x="938" y="-43" type="line"/>
      <point x="980" y="-43" type="line"/>
      <point x="980" y="221" type="line"/>
      <point x="938" y="221" type="line"/>
      <point x="909" y="129" smooth="yes"/>
      <point x="706" y="12" smooth="yes"/>
      <point x="571" y="12" type="curve" smooth="yes"/>
      <point x="533" y="12" smooth="yes"/>
      <point x="487" y="24" smooth="yes"/>
      <point x="487" y="204" type="curve" smooth="yes"/>
      <point x="487" y="359" smooth="yes"/>
      <point x="555" y="395" smooth="yes"/>
      <point x="641" y="395" type="curve" smooth="yes"/>
      <point x="666" y="395"/>
      <point x="708" y="394"/>
      <point x="739" y="393" type="curve"/>
      <point x="739" y="438" type="line"/>
      <point x="706" y="439" smooth="yes"/>
      <point x="685" y="440" smooth="yes"/>
      <point x="660" y="440" type="curve" smooth="yes"/>
      <point x="364" y="440" smooth="yes"/>
      <point x="95" y="307" smooth="yes"/>
    </contour>
    <contour>
      <point x="476" y="644" type="curve" smooth="yes"/>
      <point x="476" y="607"/>
      <point x="491" y="575"/>
      <point x="513" y="552" type="curve"/>
      <point x="510" y="547" type="line"/>
      <point x="461" y="567" smooth="yes"/>
      <point x="427" y="604" smooth="yes"/>
      <point x="427" y="644" type="curve" smooth="yes" name="hr01"/>
      <point x="427" y="684"/>
      <point x="461" y="722"/>
      <point x="510" y="741" type="curve"/>
      <point x="513" y="736" type="line"/>
      <point x="491" y="713" smooth="yes"/>
      <point x="476" y="681" smooth="yes"/>
    </contour>
    <contour>
      <point x="334" y="17" type="line"/>
      <point x="229" y="37" smooth="yes"/>
      <point x="155" y="76" smooth="yes"/>
      <point x="155" y="148" type="curve" smooth="yes"/>
      <point x="155" y="250"/>
      <point x="273" y="340"/>
      <point x="436" y="385" type="curve"/>
      <point x="440" y="377" type="line"/>
      <point x="311" y="330" smooth="yes"/>
      <point x="220" y="244" smooth="yes"/>
      <point x="220" y="148" type="curve" smooth="yes" name="hr02"/>
      <point x="220" y="86"/>
      <point x="266" y="48"/>
      <point x="336" y="26" type="curve"/>
    </contour>
  </outline>
</glyph>
<glyph name="multiply" format="1">
  <advance width="740"/>
  <unicode hex="00D7"/>
  <outline>
    <contour>
      <point x="552" y="575" type="line" name="hr00"/>
      <point x="133" y="156" type="line"/>
      <point x="188" y="101" type="line"/>
      <point x="607" y="520" type="line"/>
    </contour>
    <contour>
      <point x="133" y="520" type="line"/>
      <point x="552" y="101" type="line"/>
      <point x="607" y="156" type="line"/>
      <point x="188" y="575" type="line"/>
    </contour>
  </outline>
</glyph>
<glyph name="divide" format="1">
  <advance width="740"/>
  <unicode hex="00F7"/>
  <outline>
    <contour>
      <point x="475" y="153" type="curve" smooth="yes" name="hr00"/>
      <point x="475" y="197" smooth="yes"/>
      <point x="428" y="234" smooth="yes"/>
      <point x="370" y="234" type="curve" smooth="yes"/>
      <point x="312" y="234" smooth="yes"/>
      <point x="265" y="197" smooth="yes"/>
      <point x="265" y="153" type="curve" smooth="yes"/>
      <point x="265" y="109" smooth="yes"/>
      <point x="312" y="73" smooth="yes"/>
      <point x="370" y="73" type="curve" smooth="yes"/>
      <point x="428" y="73" smooth="yes"/>
      <point x="475" y="109" smooth="yes"/>
    </contour>
    <contour>
      <point x="475" y="522" type="curve" smooth="yes"/>
      <point x="475" y="566" smooth="yes"/>
      <point x="428" y="603" smooth="yes"/>
      <point x="370" y="603" type="curve" smooth="yes"/>
      <point x="312" y="603" smooth="yes"/>
      <point x="265" y="566" smooth="yes"/>
      <point x="265" y="522" type="curve" smooth="yes"/>
      <point x="265" y="478" smooth="yes"/>
      <point x="312" y="442" smooth="yes"/>
      <point x="370" y="442" type="curve" smooth="yes"/>
      <point x="428" y="442" smooth="yes"/>
      <point x="475" y="478" smooth="yes"/>
    </contour>
    <component  base="minus"/>
  </outline>
</glyph>
<glyph name="thorn" format="1">
  <advance width="1249"/>
  <unicode hex="00FE"/>
  <outline>
    <contour>
      <point x="732" y="163" type="line" smooth="yes" name="hr00"/>
      <point x="777" y="163" smooth="yes"/>
      <point x="868" y="193" smooth="yes"/>
      <point x="868" y="278" type="curve" smooth="yes"/>
      <point x="868" y="365" smooth="yes"/>
      <point x="777" y="393" smooth="yes"/>
      <point x="732" y="393" type="curve" smooth="yes"/>
      <point x="646" y="393" type="line" smooth="yes"/>
      <point x="624" y="393" smooth="yes"/>
      <point x="606" y="375" smooth="yes"/>
      <point x="606" y="352" type="curve" smooth="yes"/>
      <point x="606" y="203" type="line" smooth="yes"/>
      <point x="606" y="181" smooth="yes"/>
      <point x="624" y="163" smooth="yes"/>
      <point x="646" y="163" type="curve" smooth="yes"/>
    </contour>
    <contour>
      <point x="994" y="278" type="curve" smooth="yes"/>
      <point x="994" y="324"/>
      <point x="961" y="370"/>
      <point x="922" y="387" type="curve"/>
      <point x="918" y="384" type="line"/>
      <point x="935" y="354" smooth="yes"/>
      <point x="940" y="316" smooth="yes"/>
      <point x="940" y="278" type="curve" smooth="yes"/>
      <point x="940" y="240"/>
      <point x="935" y="202"/>
      <point x="918" y="172" type="curve"/>
      <point x="922" y="169" type="line"/>
      <point x="961" y="186" smooth="yes"/>
      <point x="994" y="232" smooth="yes"/>
    </contour>
    <contour>
      <point x="606" y="43" type="line"/>
      <point x="802" y="43" type="line"/>
      <point x="802" y="0" type="line"/>
      <point x="73" y="0" type="line"/>
      <point x="73" y="43" type="line"/>
      <point x="179" y="43" type="line" smooth="yes"/>
      <point x="228" y="43" smooth="yes"/>
      <point x="269" y="65" smooth="yes"/>
      <point x="269" y="131" type="curve" smooth="yes"/>
      <point x="269" y="425" type="line" smooth="yes"/>
      <point x="269" y="473" smooth="yes"/>
      <point x="228" y="515" smooth="yes"/>
      <point x="179" y="515" type="curve" smooth="yes"/>
      <point x="73" y="515" type="line"/>
      <point x="73" y="558" type="line"/>
      <point x="802" y="558" type="line"/>
      <point x="802" y="515" type="line"/>
      <point x="606" y="515" type="line"/>
      <point x="606" y="492" type="line" smooth="yes"/>
      <point x="606" y="452" smooth="yes"/>
      <point x="620" y="436" smooth="yes"/>
      <point x="650" y="436" type="curve" smooth="yes"/>
      <point x="932" y="436" type="line" smooth="yes"/>
      <point x="1059" y="436" smooth="yes"/>
      <point x="1235" y="419" smooth="yes"/>
      <point x="1235" y="279" type="curve" smooth="yes"/>
      <point x="1235" y="161" smooth="yes"/>
      <point x="1120" y="120" smooth="yes"/>
      <point x="966" y="120" type="curve" smooth="yes"/>
      <point x="650" y="120" type="line" smooth="yes"/>
      <point x="620" y="120" smooth="yes"/>
      <point x="606" y="104" smooth="yes"/>
      <point x="606" y="64" type="curve" smooth="yes"/>
    </contour>
    <contour>
      <point x="382" y="515" type="line"/>
      <point x="331" y="515" type="line"/>
      <point x="331" y="43" type="line"/>
      <point x="382" y="43" type="line"/>
    </contour>
  </outline>
</glyph>
<glyph name="dcroat" format="1">
  <advance width="1268"/>
  <unicode hex="0111"/>
  <outline>
    <contour>
      <point x="763" y="319" type="line" name="hr00"/>
      <point x="487" y="319" type="line"/>
      <point x="487" y="239" type="line"/>
      <point x="763" y="239" type="line"/>
    </contour>
    <contour>
      <point x="301" y="319" type="line"/>
      <point x="135" y="319" type="line"/>
      <point x="135" y="239" type="line"/>
      <point x="301" y="239" type="line"/>
    </contour>
    <component  base="d"/>
  </outline>
</glyph>
<glyph name="hbar" format="1">
  <advance width="1482"/>
  <unicode hex="0127"/>
  <outline>
    <contour>
      <point x="282" y="437" type="line" name="hr00"/>
      <point x="137" y="437" type="line"/>
      <point x="137" y="365" type="line"/>
      <point x="282" y="365" type="line"/>
    </contour>
    <contour>
      <point x="909" y="437" type="line"/>
      <point x="496" y="437" type="line"/>
      <point x="496" y="365" type="line"/>
      <point x="909" y="365" type="line"/>
    </contour>
    <contour>
      <point x="1338" y="437" type="line"/>
      <point x="1193" y="437" type="line"/>
      <point x="1193" y="365" type="line"/>
      <point x="1338" y="365" type="line"/>
    </contour>
    <component  base="h"/>
  </outline>
</glyph>
<glyph name="Lslash" format="1">
  <advance width="1249"/>
  <unicode hex="0141"/>
  <outline>
    <contour>
      <point x="876" y="483" type="line" name="hr00"/>
      <point x="510" y="365" type="line"/>
      <point x="510" y="285" type="line"/>
      <point x="876" y="403" type="line"/>
    </contour>
    <contour>
      <point x="349" y="313" type="line"/>
      <point x="151" y="249" type="line"/>
      <point x="151" y="169" type="line"/>
      <point x="349" y="233" type="line"/>
    </contour>
    <component  base="L"/>
  </outline>
</glyph>
<glyph name="Tbar" format="1">
  <advance width="1104"/>
  <unicode hex="0166"/>
  <outline>
    <contour>
      <point x="394" y="310" type="line" name="hr00"/>
      <point x="216" y="310" type="line"/>
      <point x="216" y="238" type="line"/>
      <point x="394" y="238" type="line"/>
    </contour>
    <contour>
      <point x="888" y="310" type="line"/>
      <point x="710" y="310" type="line"/>
      <point x="710" y="238" type="line"/>
      <point x="888" y="238" type="line"/>
    </contour>
    <component  base="T"/>
  </outline>
</glyph>
<glyph name="tbar" format="1">
  <advance width="958"/>
  <unicode hex="0167"/>
  <outline>
    <contour>
      <point x="358" y="310" type="line" name="hr00"/>
      <point x="180" y="310" type="line"/>
      <point x="180" y="238" type="line"/>
      <point x="358" y="238" type="line"/>
    </contour>
    <contour>
      <point x="777" y="310" type="line"/>
      <point x="599" y="310" type="line"/>
      <point x="599" y="238" type="line"/>
      <point x="777" y="238" type="line"/>
    </contour>
    <component  base="t"/>
  </outline>
</glyph>
<glyph name="caron" format="1">
  <advance width="691"/>
  <unicode hex="02C7"/>
  <outline>
    <contour>
      <point x="508" y="624" type="line"/>
      <point x="641" y="770" type="line"/>
      <point x="554" y="770" type="line"/>
      <point x="451" y="658" type="line"/>
      <point x="347" y="770" type="line"/>
      <point x="50" y="770" type="line"/>
      <point x="184" y="624" type="line"/>
    </contour>
    <contour>
      <point x="236" y="649" type="line"/>
      <point x="161" y="732" type="line" name="hr01"/>
      <point x="223" y="732" type="line"/>
      <point x="298" y="649" type="line"/>
    </contour>
  </outline>
</glyph>
<glyph name="ring" format="1">
  <advance width="374"/>
  <unicode hex="02DA"/>
  <outline>
    <contour>
      <point x="138" y="706" type="curve" smooth="yes" name="hr00"/>
      <point x="138" y="761" smooth="yes"/>
      <point x="160" y="805" smooth="yes"/>
      <point x="186" y="805" type="curve" smooth="yes"/>
      <point x="212" y="805" smooth="yes"/>
      <point x="234" y="761" smooth="yes"/>
      <point x="234" y="706" type="curve" smooth="yes"/>
      <point x="234" y="651" smooth="yes"/>
      <point x="212" y="607" smooth="yes"/>
      <point x="186" y="607" type="curve" smooth="yes"/>
      <point x="160" y="607" smooth="yes"/>
      <point x="138" y="651" smooth="yes"/>
    </contour>
    <contour>
      <point x="345" y="706" type="curve" smooth="yes"/>
      <point x="345" y="778" smooth="yes"/>
      <point x="274" y="838" smooth="yes"/>
      <point x="186" y="838" type="curve" smooth="yes"/>
      <point x="100" y="838" smooth="yes"/>
      <point x="29" y="778" smooth="yes"/>
      <point x="29" y="706" type="curve" smooth="yes"/>
      <point x="29" y="633" smooth="yes"/>
      <point x="100" y="576" smooth="yes"/>
      <point x="186" y="576" type="curve" smooth="yes"/>
      <point x="274" y="576" smooth="yes"/>
      <point x="345" y="633" smooth="yes"/>
    </contour>
    <contour>
      <point x="101" y="706" type="curve"/>
      <point x="101" y="670"/>
      <point x="113" y="638"/>
      <point x="132" y="616" type="curve"/>
      <point x="129" y="613" type="line"/>
      <point x="89" y="631" smooth="yes"/>
      <point x="61" y="668" smooth="yes"/>
      <point x="61" y="706" type="curve" smooth="yes"/>
      <point x="61" y="744"/>
      <point x="89" y="781"/>
      <point x="129" y="799" type="curve"/>
      <point x="132" y="796" type="line"/>
      <point x="113" y="774"/>
      <point x="101" y="741"/>
    </contour>
  </outline>
</glyph>
<glyph name="tilde" format="1">
  <advance width="738"/>
  <unicode hex="02DC"/>
  <outline>
    <contour>
      <point x="617" y="693" type="line"/>
      <point x="584" y="665" smooth="yes"/>
      <point x="530" y="647" smooth="yes"/>
      <point x="484" y="647" type="curve" smooth="yes"/>
      <point x="344" y="647" smooth="yes"/>
      <point x="251" y="697" smooth="yes"/>
      <point x="167" y="697" type="curve" smooth="yes"/>
      <point x="153" y="697"/>
      <point x="139" y="695"/>
      <point x="125" y="692" type="curve"/>
      <point x="122" y="696" type="line"/>
      <point x="140" y="712" smooth="yes"/>
      <point x="165" y="726" smooth="yes"/>
      <point x="202" y="726" type="curve" smooth="yes"/>
      <point x="312" y="726" smooth="yes"/>
      <point x="356" y="682" smooth="yes"/>
      <point x="512" y="682" type="curve" smooth="yes" name="hr01"/>
      <point x="541" y="682"/>
      <point x="587" y="688"/>
      <point x="615" y="697" type="curve" name="hr02"/>
    </contour>
    <contour>
      <point x="655" y="786" type="line"/>
      <point x="642" y="764" smooth="yes"/>
      <point x="621" y="751" smooth="yes"/>
      <point x="577" y="751" type="curve" smooth="yes" name="hr03"/>
      <point x="471" y="751" smooth="yes"/>
      <point x="426" y="787" smooth="yes"/>
      <point x="276" y="787" type="curve" smooth="yes" name="hr04"/>
      <point x="128" y="787"/>
      <point x="54" y="675"/>
      <point x="50" y="625" type="curve"/>
      <point x="78" y="625" type="line"/>
      <point x="87" y="647" smooth="yes"/>
      <point x="111" y="662" smooth="yes"/>
      <point x="140" y="662" type="curve" smooth="yes" name="hr05"/>
      <point x="270" y="662" smooth="yes"/>
      <point x="320" y="613" smooth="yes"/>
      <point x="477" y="613" type="curve" smooth="yes" name="hr06"/>
      <point x="616" y="613"/>
      <point x="683" y="733"/>
      <point x="688" y="786" type="curve"/>
    </contour>
  </outline>
</glyph>
<glyph name="hungarumlaut" format="1">
  <advance width="929"/>
  <unicode hex="02DD"/>
  <outline>
    <contour>
      <point x="336" y="642" type="curve" smooth="yes"/>
      <point x="457" y="673"/>
      <point x="480" y="770"/>
      <point x="480" y="770" type="curve"/>
      <point x="239" y="770" type="line"/>
      <point x="197" y="700"/>
      <point x="152" y="660"/>
      <point x="50" y="660" type="curve" name="hr01"/>
      <point x="50" y="624" type="line" name="hr02"/>
      <point x="65" y="624" type="line" smooth="yes"/>
      <point x="138" y="624" smooth="yes"/>
      <point x="266" y="625" smooth="yes"/>
    </contour>
    <contour>
      <point x="178" y="667" type="line"/>
      <point x="208" y="677"/>
      <point x="261" y="705"/>
      <point x="279" y="742" type="curve" name="hr03"/>
      <point x="343" y="742" type="line"/>
      <point x="326" y="717"/>
      <point x="282" y="668"/>
      <point x="178" y="663" type="curve"/>
    </contour>
    <contour>
      <point x="735" y="642" type="curve" smooth="yes"/>
      <point x="856" y="673"/>
      <point x="879" y="770"/>
      <point x="879" y="770" type="curve" name="hr04"/>
      <point x="638" y="770" type="line"/>
      <point x="596" y="700"/>
      <point x="551" y="660"/>
      <point x="449" y="660" type="curve" name="hr05"/>
      <point x="449" y="624" type="line" name="hr06"/>
      <point x="464" y="624" type="line" smooth="yes"/>
      <point x="537" y="624" smooth="yes"/>
      <point x="665" y="625" smooth="yes"/>
    </contour>
    <contour>
      <point x="577" y="667" type="line"/>
      <point x="607" y="677"/>
      <point x="660" y="705"/>
      <point x="678" y="742" type="curve" name="hr07"/>
      <point x="742" y="742" type="line"/>
      <point x="725" y="717"/>
      <point x="681" y="668"/>
      <point x="577" y="663" type="curve"/>
    </contour>
  </outline>
</glyph>
<glyph name="endash" format="1">
  <advance width="1010"/>
  <unicode hex="2013"/>
  <outline>
    <contour>
      <point x="910" y="343" type="line" name="hr00"/>
      <point x="100" y="343" type="line"/>
      <point x="100" y="263" type="line"/>
      <point x="910" y="263" type="line"/>
    </contour>
  </outline>
</glyph>
<glyph name="emdash" format="1">
  <advance width="1212"/>
  <unicode hex="2014"/>
  <outline>
    <contour>
      <point x="1112" y="343" type="line" name="hr00"/>
      <point x="100" y="343" type="line"/>
      <point x="100" y="263" type="line"/>
      <point x="1112" y="263" type="line"/>
    </contour>
  </outline>
</glyph>
<glyph name="daggerdbl" format="1">
  <advance width="1071"/>
  <unicode hex="2021"/>
  <outline>
    <contour>
      <point x="479" y="731" type="line" smooth="yes" name="hr00"/>
      <point x="479" y="642"/>
      <point x="445" y="612"/>
      <point x="421" y="602" type="curve"/>
      <point x="421" y="767" type="line"/>
      <point x="479" y="767" type="line"/>
    </contour>
    <contour>
      <point x="421" y="465" type="line"/>
      <point x="445" y="455" smooth="yes"/>
      <point x="479" y="424" smooth="yes"/>
      <point x="479" y="353" type="curve" smooth="yes"/>
      <point x="479" y="307" type="line" smooth="yes"/>
      <point x="479" y="235"/>
      <point x="445" y="205"/>
      <point x="421" y="195" type="curve"/>
    </contour>
    <contour>
      <point x="360" y="267" type="line" smooth="yes"/>
      <point x="360" y="216" smooth="yes"/>
      <point x="318" y="168" smooth="yes"/>
      <point x="266" y="168" type="curve" smooth="yes"/>
      <point x="63" y="168" type="line"/>
      <point x="63" y="85" type="line"/>
      <point x="262" y="85" type="line" smooth="yes"/>
      <point x="316" y="85" smooth="yes"/>
      <point x="360" y="39" smooth="yes"/>
      <point x="360" y="-14" type="curve" smooth="yes"/>
      <point x="360" y="-146" type="line"/>
      <point x="711" y="-146" type="line"/>
      <point x="711" y="-14" type="line"/>
      <point x="711" y="39" smooth="yes"/>
      <point x="756" y="85" smooth="yes"/>
      <point x="810" y="85" type="curve" smooth="yes"/>
      <point x="1008" y="85" type="line"/>
      <point x="1008" y="168" type="line"/>
      <point x="810" y="168" type="line" smooth="yes"/>
      <point x="756" y="168" smooth="yes"/>
      <point x="711" y="214" smooth="yes"/>
      <point x="711" y="267" type="curve" smooth="yes"/>
      <point x="711" y="393" type="line" smooth="yes"/>
      <point x="711" y="446" smooth="yes"/>
      <point x="756" y="492" smooth="yes"/>
      <point x="810" y="492" type="curve" smooth="yes"/>
      <point x="1008" y="492" type="line"/>
      <point x="1008" y="575" type="line"/>
      <point x="810" y="575" type="line" smooth="yes"/>
      <point x="756" y="575" smooth="yes"/>
      <point x="711" y="621" smooth="yes"/>
      <point x="711" y="674" type="curve" smooth="yes"/>
      <point x="711" y="806" type="line"/>
      <point x="360" y="806" type="line"/>
      <point x="360" y="674" type="line" smooth="yes"/>
      <point x="360" y="621" smooth="yes"/>
      <point x="316" y="575" smooth="yes"/>
      <point x="262" y="575" type="curve" smooth="yes"/>
      <point x="63" y="575" type="line"/>
      <point x="63" y="492" type="line"/>
      <point x="266" y="492" type="line" smooth="yes"/>
      <point x="318" y="492" smooth="yes"/>
      <point x="360" y="444" smooth="yes"/>
      <point x="360" y="393" type="curve" smooth="yes"/>
    </contour>
    <contour>
      <point x="479" y="-107" type="line"/>
      <point x="421" y="-107" type="line"/>
      <point x="421" y="58" type="line"/>
      <point x="445" y="48" smooth="yes"/>
      <point x="479" y="18" smooth="yes"/>
      <point x="479" y="-71" type="curve" smooth="yes"/>
    </contour>
  </outline>
</glyph>
<glyph name="eightinferior" format="1">
  <advance width="604"/>
  <unicode hex="2088"/>
  <outline>
    <contour>
      <point x="219" y="274" type="curve" smooth="yes"/>
      <point x="219" y="320" smooth="yes"/>
      <point x="236" y="343" smooth="yes"/>
      <point x="300" y="343" type="curve" smooth="yes"/>
      <point x="365" y="343" smooth="yes"/>
      <point x="382" y="320" smooth="yes"/>
      <point x="382" y="274" type="curve" smooth="yes"/>
      <point x="382" y="228" smooth="yes"/>
      <point x="351" y="207" smooth="yes"/>
      <point x="300" y="207" type="curve" smooth="yes"/>
      <point x="250" y="207" smooth="yes"/>
      <point x="219" y="228" smooth="yes"/>
    </contour>
    <contour>
      <point x="300" y="13" type="curve" smooth="yes"/>
      <point x="250" y="13" smooth="yes"/>
      <point x="219" y="42" smooth="yes"/>
      <point x="219" y="98" type="curve" smooth="yes"/>
      <point x="219" y="158" smooth="yes"/>
      <point x="244" y="188" smooth="yes"/>
      <point x="300" y="188" type="curve" smooth="yes"/>
      <point x="362" y="188" smooth="yes"/>
      <point x="382" y="152" smooth="yes"/>
      <point x="382" y="98" type="curve" smooth="yes"/>
      <point x="382" y="42" smooth="yes"/>
      <point x="351" y="13" smooth="yes"/>
    </contour>
    <contour>
      <point x="202" y="9" type="line"/>
      <point x="88" y="25" smooth="yes"/>
      <point x="64" y="65" smooth="yes"/>
      <point x="64" y="98" type="curve" smooth="yes"/>
      <point x="64" y="130"/>
      <point x="87" y="170"/>
      <point x="200" y="187" type="curve"/>
      <point x="202" y="183" type="line"/>
      <point x="118" y="166" smooth="yes"/>
      <point x="104" y="129" smooth="yes"/>
      <point x="104" y="98" type="curve" smooth="yes"/>
      <point x="104" y="67"/>
      <point x="120" y="29"/>
      <point x="203" y="13" type="curve"/>
    </contour>
    <contour>
      <point x="391" y="25" type="line"/>
      <point x="413" y="47" smooth="yes"/>
      <point x="422" y="72" smooth="yes"/>
      <point x="422" y="98" type="curve" smooth="yes"/>
      <point x="422" y="124"/>
      <point x="413" y="149"/>
      <point x="392" y="171" type="curve"/>
      <point x="395" y="174" type="line"/>
      <point x="447" y="155" smooth="yes"/>
      <point x="462" y="128" smooth="yes"/>
      <point x="462" y="98" type="curve" smooth="yes" name="hr01"/>
      <point x="462" y="68"/>
      <point x="446" y="40"/>
      <point x="395" y="22" type="curve"/>
    </contour>
    <contour>
      <point x="392" y="217" type="line"/>
      <point x="410" y="235" smooth="yes"/>
      <point x="422" y="254" smooth="yes"/>
      <point x="422" y="275" type="curve" smooth="yes"/>
      <point x="422" y="295"/>
      <point x="410" y="315"/>
      <point x="393" y="332" type="curve"/>
      <point x="397" y="334" type="line"/>
      <point x="439" y="319" smooth="yes"/>
      <point x="462" y="298" smooth="yes"/>
      <point x="462" y="275" type="curve" smooth="yes"/>
      <point x="462" y="252"/>
      <point x="439" y="231"/>
      <point x="396" y="216" type="curve"/>
    </contour>
    <contour>
      <point x="219" y="205" type="line"/>
      <point x="127" y="218" smooth="yes"/>
      <point x="107" y="250" smooth="yes"/>
      <point x="107" y="275" type="curve" smooth="yes"/>
      <point x="107" y="300"/>
      <point x="127" y="333"/>
      <point x="222" y="346" type="curve"/>
      <point x="224" y="341" type="line"/>
      <point x="155" y="328" smooth="yes"/>
      <point x="147" y="291" smooth="yes"/>
      <point x="147" y="275" type="curve" smooth="yes"/>
      <point x="147" y="259"/>
      <point x="153" y="223"/>
      <point x="221" y="210" type="curve"/>
    </contour>
    <contour>
      <point x="535" y="275" type="curve" smooth="yes"/>
      <point x="535" y="324" smooth="yes"/>
      <point x="443" y="363" smooth="yes"/>
      <point x="300" y="363" type="curve" smooth="yes"/>
      <point x="158" y="363" smooth="yes"/>
      <point x="67" y="324" smooth="yes"/>
      <point x="67" y="275" type="curve" smooth="yes"/>
      <point x="67" y="243"/>
      <point x="109" y="215"/>
      <point x="177" y="200" type="curve"/>
      <point x="177" y="196" type="line"/>
      <point x="82" y="179" smooth="yes"/>
      <point x="28" y="139" smooth="yes"/>
      <point x="28" y="98" type="curve" smooth="yes" name="hr02"/>
      <point x="28" y="37" smooth="yes"/>
      <point x="150" y="-12" smooth="yes"/>
      <point x="300" y="-12" type="curve" smooth="yes"/>
      <point x="451" y="-12" smooth="yes"/>
      <point x="572" y="37" smooth="yes"/>
      <point x="572" y="98" type="curve" smooth="yes"/>
      <point x="572" y="139"/>
      <point x="517" y="179"/>
      <point x="423" y="196" type="curve"/>
      <point x="423" y="200" type="line"/>
      <point x="489" y="215" smooth="yes"/>
      <point x="535" y="243" smooth="yes"/>
    </contour>
  </outline>
</glyph>
<glyph name="nineinferior" format="1">
  <advance width="598"/>
  <unicode hex="2089"/>
  <outline>
    <contour>
      <point x="102" y="13" type="line"/>
      <point x="102" y="13" smooth="yes"/>
      <point x="181" y="-12" smooth="yes"/>
      <point x="284" y="-12" type="curve" smooth="yes"/>
      <point x="435" y="-12" smooth="yes"/>
      <point x="566" y="58" smooth="yes"/>
      <point x="566" y="173" type="curve" smooth="yes"/>
      <point x="566" y="297" smooth="yes"/>
      <point x="432" y="367" smooth="yes"/>
      <point x="298" y="367" type="curve" smooth="yes"/>
      <point x="166" y="367" smooth="yes"/>
      <point x="28" y="315" smooth="yes"/>
      <point x="28" y="231" type="curve" smooth="yes"/>
      <point x="28" y="146" smooth="yes"/>
      <point x="131" y="117" smooth="yes"/>
      <point x="219" y="117" type="curve" smooth="yes"/>
      <point x="292" y="117"/>
      <point x="356" y="139"/>
      <point x="375" y="147" type="curve"/>
      <point x="373" y="65" smooth="yes"/>
      <point x="345" y="16" smooth="yes"/>
      <point x="267" y="16" type="curve" smooth="yes"/>
      <point x="186" y="16"/>
      <point x="101" y="92"/>
      <point x="101" y="92" type="curve"/>
      <point x="76" y="92" type="line"/>
      <point x="76" y="-4" type="line" name="hr01"/>
      <point x="102" y="-4" type="line"/>
    </contour>
    <contour>
      <point x="376" y="178" type="curve"/>
      <point x="376" y="178" smooth="yes"/>
      <point x="321" y="148" smooth="yes"/>
      <point x="276" y="148" type="curve" smooth="yes" name="hr02"/>
      <point x="230" y="148" smooth="yes"/>
      <point x="210" y="191" smooth="yes"/>
      <point x="210" y="240" type="curve" smooth="yes"/>
      <point x="210" y="272" smooth="yes"/>
      <point x="214" y="339" smooth="yes"/>
      <point x="295" y="339" type="curve" smooth="yes"/>
      <point x="370" y="339"/>
      <point x="376" y="273"/>
    </contour>
    <contour>
      <point x="456" y="179" type="curve" smooth="yes" name="hr03"/>
      <point x="456" y="121"/>
      <point x="429" y="61"/>
      <point x="396" y="36" type="curve"/>
      <point x="393" y="38" type="line"/>
      <point x="408" y="70" smooth="yes"/>
      <point x="416" y="133" smooth="yes"/>
      <point x="416" y="179" type="curve" smooth="yes"/>
      <point x="416" y="225"/>
      <point x="408" y="288"/>
      <point x="393" y="320" type="curve"/>
      <point x="396" y="322" type="line"/>
      <point x="429" y="297" smooth="yes"/>
      <point x="456" y="237" smooth="yes"/>
    </contour>
    <contour>
      <point x="108" y="231" type="curve" smooth="yes"/>
      <point x="108" y="197"/>
      <point x="120" y="166"/>
      <point x="139" y="145" type="curve"/>
      <point x="136" y="143" type="line"/>
      <point x="96" y="160" smooth="yes"/>
      <point x="68" y="195" smooth="yes"/>
      <point x="68" y="231" type="curve" smooth="yes"/>
      <point x="68" y="267"/>
      <point x="96" y="302"/>
      <point x="136" y="319" type="curve"/>
      <point x="139" y="316" type="line"/>
      <point x="120" y="296" smooth="yes"/>
      <point x="108" y="264" smooth="yes"/>
    </contour>
  </outline>
</glyph>
<glyph name="franc" format="1">
  <advance width="1235"/>
  <unicode hex="20A3"/>
  <outline>
    <contour>
      <point x="910" y="43" type="line" name="hr00"/>
      <point x="810" y="43" type="line" smooth="yes"/>
      <point x="725" y="43" smooth="yes"/>
      <point x="692" y="54" smooth="yes"/>
      <point x="692" y="147" type="curve" smooth="yes"/>
      <point x="692" y="223" type="line" smooth="yes"/>
      <point x="692" y="266" smooth="yes"/>
      <point x="711" y="313" smooth="yes"/>
      <point x="779" y="313" type="curve" smooth="yes"/>
      <point x="865" y="313"/>
      <point x="928" y="290"/>
      <point x="961" y="213" type="curve"/>
      <point x="998" y="213" type="line"/>
      <point x="998" y="463" type="line"/>
      <point x="961" y="463" type="line"/>
      <point x="928" y="414" smooth="yes"/>
      <point x="865" y="372" smooth="yes"/>
      <point x="779" y="372" type="curve" smooth="yes"/>
      <point x="701" y="372" smooth="yes"/>
      <point x="692" y="434" smooth="yes"/>
      <point x="692" y="474" type="curve" smooth="yes"/>
      <point x="692" y="508" type="line" smooth="yes"/>
      <point x="692" y="565" smooth="yes"/>
      <point x="733" y="606" smooth="yes"/>
      <point x="804" y="606" type="curve" smooth="yes"/>
      <point x="1050" y="606"/>
      <point x="1118" y="528"/>
      <point x="1180" y="463" type="curve"/>
      <point x="1208" y="463" type="line"/>
      <point x="1208" y="650" type="line"/>
      <point x="73" y="650" type="line"/>
      <point x="73" y="607" type="line"/>
      <point x="193" y="607" type="line" smooth="yes"/>
      <point x="253" y="607" smooth="yes"/>
      <point x="301" y="557" smooth="yes"/>
      <point x="301" y="497" type="curve" smooth="yes"/>
      <point x="301" y="152" type="line" smooth="yes"/>
      <point x="301" y="72" smooth="yes"/>
      <point x="253" y="43" smooth="yes"/>
      <point x="193" y="43" type="curve" smooth="yes"/>
      <point x="73" y="43" type="line"/>
      <point x="73" y="0" type="line"/>
      <point x="910" y="0" type="line"/>
    </contour>
    <contour>
      <point x="434" y="43" type="line"/>
      <point x="369" y="43" type="line"/>
      <point x="369" y="607" type="line"/>
      <point x="434" y="607" type="line"/>
    </contour>
    <contour>
      <point x="171" y="148" type="line"/>
      <point x="365" y="148" type="line"/>
      <point x="365" y="198" type="line"/>
      <point x="171" y="198" type="line"/>
    </contour>
    <contour>
      <point x="592" y="148" type="line"/>
      <point x="822" y="148" type="line"/>
      <point x="822" y="198" type="line"/>
      <point x="592" y="198" type="line"/>
    </contour>
  </outline>
</glyph>
<glyph name="summation" format="1">
  <advance width="1176"/>
  <unicode hex="2211"/>
  <outline>
    <contour>
      <point x="564" y="405" type="line" name="hr00"/>
      <point x="602" y="366" type="line"/>
      <point x="333" y="-156" type="line"/>
      <point x="276" y="-156" type="line"/>
    </contour>
    <contour>
      <point x="218" y="758" type="line"/>
      <point x="453" y="518" type="line" smooth="yes"/>
      <point x="472" y="498" smooth="yes"/>
      <point x="490" y="474" smooth="yes"/>
      <point x="490" y="451" type="curve" smooth="yes"/>
      <point x="490" y="437" smooth="yes"/>
      <point x="486" y="422" smooth="yes"/>
      <point x="476" y="403" type="curve" smooth="yes"/>
      <point x="291" y="43" type="line" smooth="yes"/>
      <point x="200" y="-134" smooth="yes"/>
      <point x="187" y="-156" smooth="yes"/>
      <point x="126" y="-156" type="curve" smooth="yes"/>
      <point x="50" y="-156" type="line"/>
      <point x="50" y="-199" type="line"/>
      <point x="1126" y="-199" type="line"/>
      <point x="1126" y="13" type="line"/>
      <point x="1097" y="13" type="line"/>
      <point x="975" y="-151" smooth="yes"/>
      <point x="793" y="-156" smooth="yes"/>
      <point x="648" y="-156" type="curve" smooth="yes"/>
      <point x="581" y="-156" type="line"/>
      <point x="825" y="267" type="line"/>
      <point x="344" y="758" type="line"/>
      <point x="650" y="758" type="line" smooth="yes"/>
      <point x="897" y="758"/>
      <point x="1032" y="658"/>
      <point x="1097" y="571" type="curve"/>
      <point x="1126" y="571" type="line"/>
      <point x="1126" y="801" type="line"/>
      <point x="50" y="801" type="line"/>
      <point x="50" y="758" type="line"/>
    </contour>
  </outline>
</glyph>
<glyph name="radical" format="1">
  <advance width="1072"/>
  <unicode hex="221A"/>
  <outline>
    <contour>
      <point x="953" y="801" type="line" name="hr00"/>
      <point x="688" y="207" type="line"/>
      <point x="569" y="387" type="line" smooth="yes"/>
      <point x="554" y="409" smooth="yes"/>
      <point x="546" y="434" smooth="yes"/>
      <point x="546" y="455" type="curve" smooth="yes"/>
      <point x="546" y="489" smooth="yes"/>
      <point x="565" y="515" smooth="yes"/>
      <point x="611" y="515" type="curve" smooth="yes"/>
      <point x="647" y="515" type="line"/>
      <point x="647" y="558" type="line"/>
      <point x="43" y="558" type="line"/>
      <point x="43" y="515" type="line"/>
      <point x="102" y="515" type="line"/>
      <point x="458" y="-19" type="line"/>
      <point x="649" y="-19" type="line"/>
      <point x="995" y="758" type="line"/>
      <point x="1240" y="758" type="line"/>
      <point x="1240" y="801" type="line"/>
    </contour>
    <contour>
      <point x="550" y="24" type="line"/>
      <point x="483" y="24" type="line"/>
      <point x="374" y="189"/>
      <point x="265" y="350"/>
      <point x="157" y="515" type="curve"/>
      <point x="224" y="515" type="line"/>
    </contour>
  </outline>
</glyph>
<glyph name="lozenge" format="1">
  <advance width="940"/>
  <unicode hex="25CA"/>
  <outline>
    <contour>
      <point x="890" y="279" type="line" name="hr00"/>
      <point x="890" y="323" type="line"/>
      <point x="728" y="801" type="line"/>
      <point x="216" y="801" type="line"/>
      <point x="50" y="323" type="line"/>
      <point x="50" y="279" type="line"/>
      <point x="212" y="-199" type="line"/>
      <point x="724" y="-199" type="line"/>
    </contour>
    <contour>
      <point x="200" y="278" type="line"/>
      <point x="346" y="-155" type="line"/>
      <point x="264" y="-155" type="line"/>
      <point x="118" y="278" type="line"/>
    </contour>
    <contour>
      <point x="823" y="278" type="line"/>
      <point x="672" y="-155" type="line"/>
      <point x="529" y="-155" type="line"/>
      <point x="383" y="278" type="line"/>
    </contour>
    <contour>
      <point x="604" y="323" type="line"/>
      <point x="458" y="756" type="line"/>
      <point x="540" y="756" type="line"/>
      <point x="686" y="323" type="line"/>
    </contour>
    <contour>
      <point x="118" y="323" type="line"/>
      <point x="265" y="756" type="line"/>
      <point x="391" y="756" type="line"/>
      <point x="537" y="323" type="line"/>
    </contour>
  </outline>
</glyph>
<glyph name="dieresis.case" format="1">
  <advance width="885"/>
  <outline>
    <contour>
      <point x="807" y="798" type="curve" name="hr00"/>
      <point x="807" y="861" smooth="yes"/>
      <point x="746" y="913" smooth="yes"/>
      <point x="669" y="913" type="curve" smooth="yes"/>
      <point x="594" y="913" smooth="yes"/>
      <point x="533" y="861" smooth="yes"/>
      <point x="533" y="798" type="curve" smooth="yes"/>
      <point x="533" y="735" smooth="yes"/>
      <point x="594" y="685" smooth="yes"/>
      <point x="669" y="685" type="curve" smooth="yes"/>
      <point x="746" y="685" smooth="yes"/>
      <point x="807" y="735" smooth="yes"/>
    </contour>
    <contour>
      <point x="351" y="798" type="curve"/>
      <point x="351" y="861" smooth="yes"/>
      <point x="290" y="913" smooth="yes"/>
      <point x="213" y="913" type="curve" smooth="yes"/>
      <point x="138" y="913" smooth="yes"/>
      <point x="77" y="861" smooth="yes"/>
      <point x="77" y="798" type="curve" smooth="yes"/>
      <point x="77" y="735" smooth="yes"/>
      <point x="138" y="685" smooth="yes"/>
      <point x="213" y="685" type="curve" smooth="yes"/>
      <point x="290" y="685" smooth="yes"/>
      <point x="351" y="735" smooth="yes"/>
    </contour>
    <contour>
      <point x="155" y="798" type="curve"/>
      <point x="155" y="762"/>
      <point x="167" y="732"/>
      <point x="186" y="711" type="curve"/>
      <point x="183" y="708" type="line"/>
      <point x="143" y="725" smooth="yes"/>
      <point x="114" y="760" smooth="yes"/>
      <point x="114" y="798" type="curve" smooth="yes"/>
      <point x="114" y="836"/>
      <point x="143" y="871"/>
      <point x="183" y="888" type="curve"/>
      <point x="186" y="885" type="line"/>
      <point x="167" y="864" smooth="yes"/>
      <point x="155" y="834" smooth="yes"/>
    </contour>
    <contour>
      <point x="611" y="798" type="curve" smooth="yes"/>
      <point x="611" y="762"/>
      <point x="623" y="732"/>
      <point x="642" y="711" type="curve"/>
      <point x="639" y="708" type="line"/>
      <point x="599" y="725" smooth="yes"/>
      <point x="570" y="760" smooth="yes"/>
      <point x="570" y="798" type="curve" smooth="yes"/>
      <point x="570" y="836"/>
      <point x="599" y="871"/>
      <point x="639" y="888" type="curve"/>
      <point x="642" y="885" type="line"/>
      <point x="623" y="864" smooth="yes"/>
      <point x="611" y="834" smooth="yes"/>
    </contour>
  </outline>
</glyph>
<glyph name="hungarumlaut.case" format="1">
  <advance width="929"/>
  <outline>
    <contour>
      <point x="336" y="734" type="curve" smooth="yes" name="hr00"/>
      <point x="457" y="765"/>
      <point x="480" y="862"/>
      <point x="480" y="862" type="curve"/>
      <point x="239" y="862" type="line"/>
      <point x="197" y="792"/>
      <point x="152" y="752"/>
      <point x="50" y="752" type="curve"/>
      <point x="50" y="716" type="line"/>
      <point x="65" y="716" type="line" smooth="yes"/>
      <point x="138" y="716" smooth="yes"/>
      <point x="266" y="717" smooth="yes"/>
    </contour>
    <contour>
      <point x="178" y="759" type="line"/>
      <point x="208" y="769"/>
      <point x="261" y="797"/>
      <point x="279" y="834" type="curve"/>
      <point x="343" y="834" type="line"/>
      <point x="326" y="809"/>
      <point x="282" y="760"/>
      <point x="178" y="755" type="curve"/>
    </contour>
    <contour>
      <point x="735" y="734" type="curve" smooth="yes"/>
      <point x="856" y="765"/>
      <point x="879" y="862"/>
      <point x="879" y="862" type="curve"/>
      <point x="638" y="862" type="line"/>
      <point x="596" y="792"/>
      <point x="551" y="752"/>
      <point x="449" y="752" type="curve"/>
      <point x="449" y="716" type="line"/>
      <point x="464" y="716" type="line" smooth="yes"/>
      <point x="537" y="716" smooth="yes"/>
      <point x="665" y="717" smooth="yes"/>
    </contour>
    <contour>
      <point x="577" y="759" type="line"/>
      <point x="607" y="769"/>
      <point x="660" y="797"/>
      <point x="678" y="834" type="curve"/>
      <point x="742" y="834" type="line"/>
      <point x="725" y="809"/>
      <point x="681" y="760"/>
      <point x="577" y="755" type="curve"/>
    </contour>
  </outline>
</glyph>
